<svg xmlns="http://www.w3.org/2000/svg" width="32.001" height="37.5" viewBox="0 0 32.001 37.5">
  <g id="icon-gift.svg" transform="translate(0 0)">
    <path id="Path_2" data-name="Path 2" d="M30.56,11.1h-12.4c6.909-3.4,7.46-5.551,7.206-6.753a3.972,3.972,0,0,0-5-2.668c-2.786,1.03-3.571,5.125-4.325,8.086-.962-3-1.893-6.817-4.069-8.753a3.686,3.686,0,0,0-2.883-1c-2.014.176-4.9,2.656-3.73,5.419,1.126,2.654,4.845,4.33,7.291,5.669H1.439A1.432,1.432,0,0,0,0,12.519V18.1A1.432,1.432,0,0,0,1.44,19.52h.137V37.5H30.508V19.52h.053A1.431,1.431,0,0,0,32,18.1V12.519A1.434,1.434,0,0,0,30.56,11.1ZM21.214,2.933c1.051-.153,2.492.641,2.629,1.584.2,1.36-1.7,2.593-2.543,3.168-1.262.861-2.465,1.3-3.646,2C18.1,7.865,18.93,3.266,21.214,2.933ZM9.769,7.852C8.656,7.119,6.5,5.665,6.547,4.017,6.6,2.243,9.42.775,10.956,2.1c1.929,1.664,2.857,5.48,3.561,8.169A34.9,34.9,0,0,1,9.769,7.852Zm2.988,28.182H3.069V19.52h9.687Zm0-18.012H1.524V12.6H12.756Zm5.08,18.011H14.249V12.6h3.588Zm11.18,0H19.329V19.52h9.687Zm1.46-18.012H19.329V12.6H30.476Z"/>
  </g>
</svg>
