<svg id="icon-burger.svg" xmlns="http://www.w3.org/2000/svg" width="38.5" height="34" viewBox="0 0 38.5 34">
  <g id="Group_3" data-name="Group 3">
    <path id="Path_10" data-name="Path 10" d="M36.351,22.7H2.149A2.13,2.13,0,0,0,0,24.8v1.7a2.13,2.13,0,0,0,2.149,2.1h.483v.511A4.969,4.969,0,0,0,7.647,34H30.853a4.969,4.969,0,0,0,5.015-4.892V28.6h.483A2.13,2.13,0,0,0,38.5,26.5V24.8A2.129,2.129,0,0,0,36.351,22.7Zm-2,6.407a3.461,3.461,0,0,1-3.5,3.413H7.647a3.46,3.46,0,0,1-3.5-3.413V28.6h30.2ZM36.984,26.5a.633.633,0,0,1-.633.617H2.149a.633.633,0,0,1-.633-.617V24.8a.633.633,0,0,1,.633-.617h34.2a.633.633,0,0,1,.633.617Z"/>
    <path id="Path_11" data-name="Path 11" d="M8.17,18.665l2.766,1.972L13.7,18.665l2.769,1.972,2.769-1.972,2.769,1.972,2.769-1.972,2.769,1.972,2.77-1.972L33.1,20.637l3.219-2.29-.893-1.2L33.1,18.807l-2.774-1.972-2.77,1.972-2.769-1.972-2.769,1.972-2.769-1.972-2.769,1.972L13.7,16.834l-2.768,1.972L8.17,16.834,5.4,18.807,3.08,17.153l-.894,1.194L5.4,20.637Z"/>
    <path id="Path_12" data-name="Path 12" d="M35.832,15.331c.021-.3.027-1.29.019-1.479C35.506,6.151,28.208,0,19.25,0S2.994,6.151,2.649,13.852c-.009.189,0,1.178.02,1.479ZM19.25,1.479c8.1,0,14.735,5.5,15.084,12.373H4.166C4.515,6.979,11.146,1.479,19.25,1.479Z"/>
    <ellipse id="Ellipse_2" data-name="Ellipse 2" cx="1.011" cy="0.986" rx="1.011" ry="0.986" transform="translate(18.239 6.43)"/>
    <ellipse id="Ellipse_3" data-name="Ellipse 3" cx="1.011" cy="0.986" rx="1.011" ry="0.986" transform="translate(14.195 3.985)"/>
    <ellipse id="Ellipse_4" data-name="Ellipse 4" cx="1.011" cy="0.986" rx="1.011" ry="0.986" transform="translate(22.283 3.985)"/>
  </g>
</svg>
