<svg id="like-icon.svg" xmlns="http://www.w3.org/2000/svg" width="24" height="22.381" viewBox="0 0 24 22.381" >
  <g id="Shape" fill="none" stroke-miterlimit="10">
    <path d="M 18.47625732421875 20.17151069641113 L 21.68086624145508 12.39153289794922 C 21.68111991882324 12.36246109008789 21.68111991882324 12.3327579498291 21.68111991882324 12.30971050262451 L 21.68111991882324 10.07158088684082 L 21.68111991882324 10.04324054718018 L 14.94544982910156 10.04324054718018 L 12.21827030181885 10.04324054718018 L 12.78367042541504 7.375320911407471 L 13.47460746765137 4.114987850189209 L 8.782340049743652 8.928360939025879 L 8.755249977111816 8.956150054931641 L 8.755249977111816 20.1431713104248 C 8.755249977111816 20.15595817565918 8.758151054382324 20.16516876220703 8.761454582214355 20.17151069641113 L 18.47625732421875 20.17151069641113 M 18.54545974731445 22.38130187988281 L 8.727270126342773 22.38130187988281 C 7.527269840240479 22.38130187988281 6.545460224151611 21.37414169311523 6.545460224151611 20.1431713104248 L 6.545460224151611 8.952521324157715 C 6.545460224151611 8.281081199645996 6.7636399269104 7.721550941467285 7.199999809265137 7.385830879211426 L 14.39999961853027 9.399414011568297e-07 L 15.60000038146973 1.11906099319458 C 15.81818008422852 1.45478093624115 16.0363597869873 1.902410984039307 16.0363597869873 2.350040912628174 L 16.0363597869873 2.685760974884033 L 14.94544982910156 7.833450794219971 L 21.81818008422852 7.833450794219971 C 23.01818084716797 7.833450794219971 24 8.840610504150391 24 10.07158088684082 L 23.89090919494629 10.07158088684082 L 23.89090919494629 12.30971050262451 C 23.89090919494629 12.53353118896484 23.89090919494629 12.8692512512207 23.78182029724121 13.09306049346924 L 20.50909042358398 21.03842163085938 C 20.18181991577148 21.8217716217041 19.41818046569824 22.38130187988281 18.54545974731445 22.38130187988281 Z M 4.363639831542969 22.38130187988281 L -1.77635683940025e-15 22.38130187988281 L -1.77635683940025e-15 8.952521324157715 L 4.363639831542969 8.952521324157715 L 4.363639831542969 22.38130187988281 Z M 24 10.12131881713867 L 24 10.07158088684082 C 24 10.10888195037842 24 10.12131881713867 24 10.12131881713867 Z" fill="#b2b2b2"/>
  </g>
</svg>
