<svg id="Group_66" data-name="Group 66" xmlns="http://www.w3.org/2000/svg" width="102" height="83" viewBox="0 0 102 83">
  <g id="Layer_2" data-name="Layer 2">
    <g id="Group_34" data-name="Group 34">
      <g id="Group_16" data-name="Group 16">
        <path id="Path_52" data-name="Path 52" d="M0,0,50.746,58.362,102,0Z" fill="#23a9e1"/>
      </g>
      <path id="Path_53" data-name="Path 53" d="M51.085,0H0V22.2L50.747,83l.339-.419L102,22.895V0Zm0,56.382-.339.405L3.72,1.755H98.446Z" fill="#491213"/>
      <path id="Path_54" data-name="Path 54" d="M50.746,56.787l.339-.405L78.751,24.474c-6.935.938-11.9,6-18.665,4.9-3.407-.557-3.509-2.485-4.484-4.4-.748-1.476-1.945-1.288-3.5-1.889-1.448-.557-2.284-1.718-5.179-1.048-2.536.585-2.817,4.464-5.972,4.243-1.694-.12-1.816-2.469-4.258-5.474-6.322-7.482-12.2-6.448-16.3.468Z" fill="#491213"/>
      <g id="Group_23" data-name="Group 23">
        <g id="Group_17" data-name="Group 17">
          <path id="Path_55" data-name="Path 55" d="M23.355,31.87a2.751,2.751,0,0,1,.809,2.091c-.06.572-.94,1.532-.272,1.825q1.127-1.4,2.25-2.8c-.6-.149-5.384-5.78-5.46-6.4L17.513,28.3c.165.652,1.3,0,1.86.045a2.939,2.939,0,0,1,1.96,1.138c-1.736,1.432-5.951,4.958-6.4,5.03-.228.037-1.093-.594-1.106-.054-.007.259.856,1,1.018,1.195q1.118,1.312,2.235,2.621c.621-.278-.108-.721.206-1.227.236-.371,4.921-4.216,6.064-5.181Z" fill="#fff"/>
        </g>
        <g id="Group_18" data-name="Group 18">
          <path id="Path_56" data-name="Path 56" d="M18.066,24.973c.443-.094.625.428.96-.055q-1.226-1.444-2.455-2.884c-.373-.437-.844-.905-.709.018.088.623-6.134,5.6-6.515,5.752-.48.195-.759-.411-1.112.1l2.2,2.577c.247.29.48.6.749.873.34.335.209-.664.226-.579-.092-.506.528-.937.857-1.214A60.364,60.364,0,0,1,18.066,24.973Z" fill="#fff"/>
        </g>
        <g id="Group_19" data-name="Group 19">
          <path id="Path_57" data-name="Path 57" d="M9.265,24.067a3.239,3.239,0,0,1-4.221-2.018c-.545-1.814.617-3.713,2.079-4.746,1.443-1.019,3.6-.958,4.387.828a3.525,3.525,0,0,1-.1,2.474c-.161.5-.6.988.057,1.273q1.293-1.625,2.589-3.247c-1.059-.626-1.524-1.664-2.309-2.566A5.893,5.893,0,0,0,8.26,13.809c-2.879-.4-5.592,2.525-5.813,5.183A5.632,5.632,0,0,0,3.7,22.947c.752.982,1.873,1.6,2.443,2.722a22.9,22.9,0,0,0,3.3-1.241,1.477,1.477,0,0,0-.171-.361Z" fill="#fff"/>
        </g>
        <g id="Group_20" data-name="Group 20">
          <path id="Path_58" data-name="Path 58" d="M48.694,60.047c-1.154-.758-4.038-4.634-4.589-5.277-.108-.128-.221-.258-.329-.387a2.144,2.144,0,0,0-.247.187c-.175.145.134.567-.053.855-.8,1.224-5.778,4.923-6.037,5.1-.556.38-1.168-.157-1.492.31a43.865,43.865,0,0,0,3.03,3.54c.481.077.146-.8.211-.988a31.626,31.626,0,0,1,3.561-3.173c.337-.278.691.421.891.715a1.72,1.72,0,0,1,.3,1.55c-.117.367-.719.909-.251,1.16l2.621-3.013c.254-.29-.567-.037-.471-.085a.929.929,0,0,1-1.066-.029c-.1-.067-1.092-1.069-.993-1.152A4.663,4.663,0,0,1,45.3,58.273c.867-.211,1.587,1.5,1.715,2.1a3.361,3.361,0,0,1-.075,1.729c-.123.382-.488.689.018.919.714-.962,1.428-1.92,2.139-2.886a.685.685,0,0,1-.4-.093C48.566,59.964,48.834,60.117,48.694,60.047Z" fill="#fff"/>
        </g>
        <g id="Group_21" data-name="Group 21">
          <path id="Path_59" data-name="Path 59" d="M38.436,55.965a5.226,5.226,0,0,0,.774-7.252,5.453,5.453,0,0,0-7.831-1.04,5.194,5.194,0,0,0-.759,7.238,5.485,5.485,0,0,0,7.817,1.054C39.6,55,38.337,56.035,38.436,55.965Zm-.466-4.7a7.415,7.415,0,0,1-3.745,3.623c-1.823.707-3.109-.816-2.366-2.522a7.422,7.422,0,0,1,3.747-3.623c1.858-.725,3.077.835,2.364,2.522C37.588,52.147,38.041,51.1,37.971,51.268Z" fill="#fff"/>
        </g>
        <g id="Group_22" data-name="Group 22">
          <path id="Path_60" data-name="Path 60" d="M31.971,41.528c.478.061.93.545,1.273.042q-1.115-1.3-2.235-2.606c-.6.265.048.544-.195.96s-2.568.772-3.186.88A15.757,15.757,0,0,1,28.789,38c.545-.439.887.428,1.288-.139q-1.378-1.607-2.754-3.214c-.311-.363-.56-1.017-.982-.672a8.139,8.139,0,0,1-.088,1.711c-.086.233-.94,3.6-1.933,4.42a21.459,21.459,0,0,1-2.711,2.071c-.543.186-.827-.591-1.224-.037q1.249,1.462,2.5,2.922c.125.146.6.853.77.882.524.095.06-.882.113-1.073.151-.424,2.508-2.687,3.507-2.824a19.65,19.65,0,0,1,4.7-.521C32.311,41.57,31.62,41.485,31.971,41.528Z" fill="#fff"/>
        </g>
      </g>
      <g id="Group_33" data-name="Group 33">
        <g id="Group_24" data-name="Group 24">
          <path id="Path_61" data-name="Path 61" d="M69.432,51.835a4.862,4.862,0,0,1,.216,1.985c-.108.863-.983,2.89-2.181,2.313a18.4,18.4,0,0,1-3.2-2.522c.8-.925,1.512-1.728,2.863-1.28.371.122.69-.036.3-.259-.405-.231-3.123-1.942-3.272-1.778-.271.307.529.857.223,1.456a6.948,6.948,0,0,1-.936,1.2c-.723-.6-1.93-1.236-1.059-2.229a3.7,3.7,0,0,1,2.1-1.326c.567-.112,1.847.384,2.014-.222q-1.639-.772-3.27-1.546c.178.79-3.36,4.47-4.144,5.4-.112.136-.66.6-.666.789-.009.423.623.095.659.083.488-.179,6.838,5.048,6.995,5.407.1.278-.221.567-.028.722-.011-.01.229.213.255.183.391-.464,4.535-5.906,5.391-6.144-.8-1.2-1.593-2.4-2.375-3.609C68.729,50.715,69.3,51.4,69.432,51.835Z" fill="#fff"/>
        </g>
        <g id="Group_25" data-name="Group 25">
          <path id="Path_62" data-name="Path 62" d="M63.25,58.459c-2.083-1.324-5.615,1.264-6.145,1.513-1.042.484-1.795-.537-1.254-1.484a2.791,2.791,0,0,1,2.318-1.274c.277-.018,1.355.195,1.464.025.129-.2.229-.219.041-.343L57.1,55.183c-.178,1.045-1.391,1.709-2.083,2.411a4.627,4.627,0,0,0-1.526,3.119,2.989,2.989,0,0,0,1.682,2.629,3.356,3.356,0,0,0,3.334-.5,19.139,19.139,0,0,1,1.93-1.157c1-.462,2.314-.062,1.959,1.254a3.575,3.575,0,0,1-2.411,2.313,3.353,3.353,0,0,1-1.879-.089c-.434-.139-1-.725-1.234-.11l3.492,2.507a2.3,2.3,0,0,1,1.09-1.545,11.631,11.631,0,0,0,2-2.1C64.618,62.234,65,59.893,63.25,58.459Z" fill="#fff"/>
        </g>
        <g id="Group_26" data-name="Group 26">
          <path id="Path_63" data-name="Path 63" d="M63.25,58.459c.929.59-.592-.488,0,0Z" fill="#fff"/>
        </g>
        <g id="Group_27" data-name="Group 27">
          <path id="Path_64" data-name="Path 64" d="M92.578,21.582Z" fill="#fff"/>
        </g>
        <g id="Group_28" data-name="Group 28">
          <path id="Path_65" data-name="Path 65" d="M100.06,19.4c-.73.719-8.447-2.315-9.01-2.733-.29-.115-.3-1.306-.707-.823s-.813.966-1.219,1.446q-.629.75-1.26,1.5c-.262.309-.539.452-.039.711.841-.413,5.436,7.26,5.024,8.362-.728.372-6.937-5-7.1-5.352-.053-.144.273-1.009-.212-.934-.231.036-.746.886-.893,1.059l-.892,1.06c.334.478.518-.022.962.042a13.259,13.259,0,0,1,2.248,1.644c-.728.027-2.7.13-2.945.112-.906.111-.423-.654-1.018-.92q-1.144,1.367-2.285,2.733c-.441.529-.888,1.058-1.329,1.587-.054.065-.047.033.051.112.331.269.1.166.569.006.509-.176,6.581,4.872,6.8,5.128.377.445-.156.965.413,1.207q.9-1.079,1.8-2.158c.091-.108.14-.1.021-.195-.43-.35-.48.209-1.005.151-.535-.088-4.409-3.329-5.914-4.556l8.224-.3c.3-.011,1.144.886,1.07,1.2-.079.375-.465.552.056.786.48-.569.986-1.137,1.46-1.715h0l.229-.279a.716.716,0,0,0,.21-.261l.169-.209c.427-.48,1.807-1.982,1.64-2.126-.463-.4-.685.461-1.3-.052a12.74,12.74,0,0,1-1.447-2.138c-.266-.444.608-.886.966-1.106.779-.475,3.259-1.168,3.492.345.041.255-.271.543-.084.695.045.037.206.239.272.161.165-.194,2.368-2.81,3.312-3.923A1.394,1.394,0,0,0,100.06,19.4Zm-7.4,2.13h0c-.051.032-.073.047-.084.053.015-.008.047-.029.082-.05a5.77,5.77,0,0,0-.962.751q-.783-1.33-1.568-2.661,1.773.729,3.536,1.465A3.786,3.786,0,0,0,92.663,21.529Z" fill="#fff"/>
        </g>
        <g id="Group_29" data-name="Group 29">
          <path id="Path_66" data-name="Path 66" d="M82.885,32.609a5.451,5.451,0,0,0-7.611.821,5.271,5.271,0,0,0,.608,7.526,5.437,5.437,0,0,0,7.6-.836A5.216,5.216,0,0,0,82.885,32.609ZM82.6,39.145a.331.331,0,0,1-.025.026c-1.236,1.278-3.368.1-4.521-.722s-3.12-2.538-1.862-4.055c1.061-1.272,3.135-.229,4.206.475,1.2.795,3.423,2.567,2.282,4.167C82.757,38.946,82.812,38.891,82.6,39.145Z" fill="#fff"/>
        </g>
        <g id="Group_30" data-name="Group 30">
          <path id="Path_67" data-name="Path 67" d="M82.885,32.609c1.177.948-.253-.21,0,0Z" fill="#fff"/>
        </g>
        <g id="Group_31" data-name="Group 31">
          <path id="Path_68" data-name="Path 68" d="M82.577,39.173a.343.343,0,0,1,.025-.027c.028-.037.057-.072.08-.109A1.5,1.5,0,0,0,82.577,39.173Z" fill="#fff"/>
        </g>
        <g id="Group_32" data-name="Group 32">
          <path id="Path_69" data-name="Path 69" d="M76.271,41.626c.112.093.275.222-.061-.056a5.949,5.949,0,0,0-8.429,1.143q-1.488,1.761-2.971,3.524c.352.506.765-.116,1.277.174.437.247,6.263,5.041,6.359,5.3.165.454-.255.542.144.865a41.006,41.006,0,0,0,4.953-6.116A4.252,4.252,0,0,0,76.271,41.626ZM74.95,48.3c-.241.293-.043.053-.666.642-.309.29-6.46-4.62-6.211-4.885a4.4,4.4,0,0,1,3.588-1.284C73.855,43.328,76.89,46,74.95,48.3Z" fill="#fff"/>
        </g>
      </g>
    </g>
  </g>
  <path id="Path_70" data-name="Path 70" d="M50.745,56.8l.34-.4L78.751,24.49c-6.936.938-11.9,6.006-18.664,4.9-3.408-.557-3.51-2.485-4.485-4.4-.748-1.476-1.943-1.288-3.5-1.888-1.447-.558-2.284-1.718-5.179-1.049-2.536.586-2.816,4.465-5.971,4.243-1.695-.12-1.817-2.468-4.258-5.474-6.323-7.482-12.2-6.447-16.3.469Z" fill="#491213"/>
  <g id="Group_35" data-name="Group 35">
    <path id="Path_71" data-name="Path 71" d="M46.713,70.085l4.033-6.424,4.017,6.424-4.017,6.438Z" fill="#23a9e1"/>
  </g>
  <g id="Group_42" data-name="Group 42">
    <g id="Group_36" data-name="Group 36">
      <path id="Path_72" data-name="Path 72" d="M23.355,31.887a2.754,2.754,0,0,1,.809,2.091c-.059.572-.939,1.532-.271,1.824l2.25-2.8c-.6-.149-5.384-5.779-5.461-6.4l-3.169,1.714c.165.653,1.3,0,1.86.045a2.941,2.941,0,0,1,1.96,1.139c-1.735,1.432-5.951,4.958-6.395,5.03-.228.036-1.093-.594-1.106-.055-.006.259.856,1,1.018,1.2q1.118,1.31,2.236,2.622c.621-.279-.11-.723.206-1.228.233-.37,4.918-4.217,6.062-5.181Z" fill="#fff"/>
    </g>
    <g id="Group_37" data-name="Group 37">
      <path id="Path_73" data-name="Path 73" d="M18.065,24.989c.444-.094.626.429.961-.055L16.57,22.051c-.372-.437-.844-.905-.708.018.088.623-6.134,5.6-6.515,5.752-.481.195-.759-.412-1.113.1q1.1,1.288,2.2,2.577c.247.289.479.6.749.872.34.335.209-.664.225-.578-.091-.507.529-.937.858-1.214A60.554,60.554,0,0,1,18.065,24.989Z" fill="#fff"/>
    </g>
    <g id="Group_38" data-name="Group 38">
      <path id="Path_74" data-name="Path 74" d="M9.265,24.083a3.238,3.238,0,0,1-4.221-2.018c-.545-1.814.617-3.713,2.079-4.745,1.443-1.02,3.6-.959,4.387.828a3.522,3.522,0,0,1-.1,2.473c-.161.5-.6.988.057,1.274q1.293-1.625,2.589-3.248c-1.059-.626-1.524-1.663-2.309-2.565A5.9,5.9,0,0,0,8.26,13.825c-2.879-.4-5.592,2.526-5.813,5.184A5.628,5.628,0,0,0,3.7,22.963c.752.982,1.873,1.6,2.442,2.722a22.768,22.768,0,0,0,3.3-1.24,1.5,1.5,0,0,0-.171-.362Z" fill="#fff"/>
    </g>
    <g id="Group_39" data-name="Group 39">
      <path id="Path_75" data-name="Path 75" d="M48.693,60.065c-1.154-.759-4.038-4.635-4.588-5.278-.108-.128-.22-.258-.33-.387a2.342,2.342,0,0,0-.247.189c-.174.143.134.566-.052.854-.8,1.225-5.777,4.924-6.036,5.1-.557.379-1.168-.157-1.494.312a44.643,44.643,0,0,0,3.03,3.54c.48.077.147-.805.211-.988a31.431,31.431,0,0,1,3.561-3.173c.337-.279.69.42.891.714a1.719,1.719,0,0,1,.3,1.551c-.116.366-.719.909-.251,1.16l2.622-3.013c.253-.29-.568-.037-.471-.086a.929.929,0,0,1-1.066-.029c-.1-.069-1.093-1.069-.993-1.152A4.646,4.646,0,0,1,45.3,58.293c.866-.211,1.587,1.5,1.715,2.1a3.362,3.362,0,0,1-.076,1.729c-.124.381-.489.688.018.918Q48.03,61.6,49.095,60.16a.719.719,0,0,1-.4-.095C48.566,59.981,48.833,60.134,48.693,60.065Z" fill="#fff"/>
    </g>
    <g id="Group_40" data-name="Group 40">
      <path id="Path_76" data-name="Path 76" d="M38.436,55.982a5.226,5.226,0,0,0,.772-7.253,5.452,5.452,0,0,0-7.829-1.04,5.192,5.192,0,0,0-.759,7.239,5.485,5.485,0,0,0,7.817,1.054C39.6,55.019,38.337,56.052,38.436,55.982Zm-.466-4.7a7.424,7.424,0,0,1-3.745,3.624c-1.824.707-3.109-.817-2.368-2.523a7.43,7.43,0,0,1,3.749-3.623c1.858-.726,3.077.836,2.364,2.522C37.587,52.165,38.041,51.118,37.971,51.285Z" fill="#fff"/>
    </g>
    <g id="Group_41" data-name="Group 41">
      <path id="Path_77" data-name="Path 77" d="M31.971,41.545c.477.059.929.544,1.273.042q-1.115-1.3-2.235-2.606c-.6.266.047.543-.195.96s-2.568.772-3.186.88a15.651,15.651,0,0,1,1.161-2.8c.546-.44.886.427,1.288-.139l-2.753-3.215c-.311-.362-.561-1.016-.983-.672a8.177,8.177,0,0,1-.089,1.713c-.086.233-.939,3.6-1.932,4.418a21.565,21.565,0,0,1-2.711,2.072c-.543.187-.828-.591-1.224-.038q1.249,1.462,2.5,2.922c.125.146.6.853.769.883.524.093.06-.883.113-1.073.151-.426,2.508-2.687,3.508-2.826a19.734,19.734,0,0,1,4.7-.518Z" fill="#fff"/>
    </g>
  </g>
  <g id="Group_43" data-name="Group 43">
    <path id="Path_78" data-name="Path 78" d="M25.691,22.606c-4.056-.165-2.359-3.908.4-4.752,2.62-.8,8.115,1.7,9.875,3.358-2.791.845-6.407.723-9.478.864-.227-3.083-.961-2.008-.794.53Z" fill="#dc6243"/>
  </g>
  <g id="Group_44" data-name="Group 44">
    <path id="Path_79" data-name="Path 79" d="M26.709,27.4c-2.047-1.561-1.4-5.2,1.769-4.1,4.019,2.06-.859,3.2-1.769,4.1Z" fill="#dc6243"/>
  </g>
  <g id="Group_45" data-name="Group 45">
    <path id="Path_80" data-name="Path 80" d="M35.225,35.008c-8.648-.07-2.8-13.166.141-12.374,3.384,1.06,3,12.474-.141,12.374Z" fill="#dc6243"/>
  </g>
  <g id="Group_46" data-name="Group 46">
    <path id="Path_81" data-name="Path 81" d="M41.351,30.73c-.843,2.472-2.369,2.933-2.2-.069C39.346,27.2,41.639,28.03,44.1,26.7c2.047-1.106,3.149-5.153,6.663-2.733,1.567,1.08,3.363.177,3.864,1.812C54.6,25.7,50.064,35.97,52.586,35.97c-4.977,0-2.781-5.853-.877-9.783-1.853.875-4.858,6.61-2.39,7.553-1.285,1.666-5.211,3.9-7.258,2.271-1.557-1.234-.694-3.286-.711-5.281Z" fill="#dc6243"/>
  </g>
  <g id="Group_47" data-name="Group 47">
    <path id="Path_82" data-name="Path 82" d="M45.468,40.22c-3.5,1.034-8.149-1.193-2.518-2.313,3.494-.7,7.21.769,2.518,2.313C45.609,40.179,45.34,40.263,45.468,40.22Z" fill="#dc6243"/>
  </g>
  <g id="Group_48" data-name="Group 48">
    <path id="Path_83" data-name="Path 83" d="M49.852,40.081c-.738-1.639.564-3.592,2.689-2.173,1.853,1.237-.854,3.07-2.689,2.173Z" fill="#dc6243"/>
  </g>
  <g id="Group_49" data-name="Group 49">
    <path id="Path_84" data-name="Path 84" d="M46.9,44.694c-2.419-.738-10.571-.554-5.235-2.732,1.645-.671,10.188.1,5.235,2.732Z" fill="#dc6243"/>
  </g>
  <g id="Group_50" data-name="Group 50">
    <path id="Path_85" data-name="Path 85" d="M50.122,44.345c-.007-.949-.514-2.648,1.358-1.923,2.242.869-1.358,2.62-1.358,1.923Z" fill="#dc6243"/>
  </g>
  <g id="Group_51" data-name="Group 51">
    <path id="Path_86" data-name="Path 86" d="M57.365,47.969c-1.442-1.213-2.9-1.28-4.243,0-1.8-3.254-8.345-2.164-11.4-2.62,1.644,3.981,14.913,4.724,15.646,2.62Z" fill="#dc6243"/>
  </g>
  <g id="Group_52" data-name="Group 52">
    <path id="Path_87" data-name="Path 87" d="M55.456,50.365c-3.161-.144-6.693-.556-9.678.083,1.866.461,6.417,1.774,2.179,2.884,1.52,2.143,3.986,2.006,5.6.126A15.355,15.355,0,0,1,52,52.414c1.677-.3,3.245-1.253,3.453-2.049Z" fill="#dc6243"/>
  </g>
  <g id="Group_53" data-name="Group 53">
    <path id="Path_88" data-name="Path 88" d="M59.063,46.533c-5.305-3.076-3.963-5.363.356-7.5,2.26-1.118,7.347-5.147,9.477-3.8q-4.918,5.651-9.833,11.3Z" fill="#dc6243"/>
  </g>
  <g id="Group_54" data-name="Group 54">
    <path id="Path_89" data-name="Path 89" d="M55.286,39.343C50.792,34.8,62,35.214,63.8,33.615c1.315.432,10.8-8.186,13.114-7.65C75.254,27.882,71.677,34,69.115,34c-1.971,0-3.964-.289-5.491,1.094-2.231,2.024-5.927,3.054-8.338,4.244Z" fill="#f49774"/>
  </g>
  <g id="Group_55" data-name="Group 55">
    <path id="Path_90" data-name="Path 90" d="M56.758,33.783c-2.461,1.3-4.788-3.861-.539-3.358,2.823.334,5.68-.234,8.375.223a8.756,8.756,0,0,1-7.837,3.135Z" fill="#f4b1a4"/>
  </g>
  <g id="Group_65" data-name="Group 65">
    <g id="Group_56" data-name="Group 56">
      <path id="Path_91" data-name="Path 91" d="M69.431,51.851a4.847,4.847,0,0,1,.216,1.985c-.107.863-.982,2.891-2.18,2.313a18.234,18.234,0,0,1-3.2-2.522c.8-.924,1.511-1.729,2.862-1.28.371.122.69-.036.3-.259-.405-.231-3.123-1.941-3.272-1.777-.271.306.53.857.222,1.455a6.949,6.949,0,0,1-.935,1.2c-.722-.6-1.929-1.238-1.059-2.23a3.707,3.707,0,0,1,2.1-1.326c.568-.113,1.847.384,2.013-.221l-3.269-1.547c.178.79-3.359,4.472-4.144,5.4-.113.136-.66.6-.666.789-.008.424.624.1.66.083.487-.179,6.837,5.048,6.995,5.407.1.278-.222.567-.029.722-.011-.01.229.214.254.183.392-.463,4.537-5.906,5.392-6.144-.8-1.2-1.593-2.4-2.376-3.608C68.728,50.732,69.3,51.415,69.431,51.851Z" fill="#fff"/>
    </g>
    <g id="Group_57" data-name="Group 57">
      <path id="Path_92" data-name="Path 92" d="M63.25,58.476c-2.084-1.323-5.614,1.265-6.145,1.514-1.042.485-1.795-.537-1.255-1.484a2.79,2.79,0,0,1,2.318-1.274c.278-.018,1.354.195,1.464.025.13-.2.229-.218.042-.342L57.1,55.2c-.177,1.044-1.39,1.707-2.083,2.411a4.626,4.626,0,0,0-1.525,3.12,2.991,2.991,0,0,0,1.682,2.629,3.359,3.359,0,0,0,3.335-.505,19.322,19.322,0,0,1,1.93-1.157c1-.462,2.312-.061,1.959,1.255a3.581,3.581,0,0,1-2.413,2.312,3.341,3.341,0,0,1-1.878-.088c-.433-.14-1-.726-1.234-.111l3.493,2.507a2.305,2.305,0,0,1,1.09-1.545,11.637,11.637,0,0,0,2-2.105C64.618,62.252,65,59.911,63.25,58.476Z" fill="#fff"/>
    </g>
    <g id="Group_58" data-name="Group 58">
      <path id="Path_93" data-name="Path 93" d="M63.25,58.476c.928.591-.593-.488,0,0Z" fill="#fff"/>
    </g>
    <g id="Group_59" data-name="Group 59">
      <path id="Path_94" data-name="Path 94" d="M92.578,21.6Z" fill="#fff"/>
    </g>
    <g id="Group_60" data-name="Group 60">
      <path id="Path_95" data-name="Path 95" d="M100.061,19.415c-.731.72-8.447-2.314-9.011-2.732-.291-.115-.3-1.306-.707-.823s-.813.965-1.22,1.446q-.629.749-1.26,1.5c-.261.31-.539.453-.038.712.84-.414,5.435,7.26,5.024,8.362-.727.372-6.938-5-7.1-5.352-.052-.144.274-1.009-.212-.934-.23.036-.745.886-.892,1.059-.3.353-.594.707-.892,1.059.334.479.519-.021.962.042a13.214,13.214,0,0,1,2.248,1.645c-.727.027-2.694.129-2.944.112-.906.111-.423-.655-1.018-.92q-1.142,1.367-2.284,2.732c-.442.53-.888,1.059-1.33,1.588-.054.064-.047.032.05.111.331.27.1.166.57.006.508-.175,6.58,4.873,6.8,5.129.378.445-.155.964.413,1.207q.9-1.079,1.8-2.158c.091-.109.141-.1.021-.2-.428-.349-.478.21-1.005.152-.535-.088-4.409-3.33-5.914-4.556l8.226-.3c.3-.011,1.143.886,1.071,1.2-.081.374-.465.551.054.785.481-.568.988-1.136,1.461-1.714h0l.228-.279a.723.723,0,0,0,.211-.262l.169-.209c.426-.479,1.806-1.983,1.64-2.125-.463-.4-.686.461-1.3-.053a12.8,12.8,0,0,1-1.448-2.137c-.265-.444.61-.886.967-1.106.779-.476,3.258-1.169,3.493.344.04.255-.272.544-.084.7.044.037.2.239.271.161.164-.195,2.369-2.81,3.312-3.923A1.491,1.491,0,0,0,100.061,19.415Zm-7.4,2.131h0l-.084.053.082-.051a5.768,5.768,0,0,0-.961.752q-.784-1.33-1.569-2.661,1.773.728,3.536,1.464A3.775,3.775,0,0,0,92.663,21.546Z" fill="#fff"/>
    </g>
    <g id="Group_61" data-name="Group 61">
      <path id="Path_96" data-name="Path 96" d="M82.886,32.625a5.451,5.451,0,0,0-7.611.822,5.269,5.269,0,0,0,.607,7.526,5.438,5.438,0,0,0,7.6-.836A5.218,5.218,0,0,0,82.886,32.625ZM82.6,39.162l-.025.027c-1.237,1.277-3.37.095-4.521-.722s-3.121-2.54-1.862-4.056c1.059-1.272,3.134-.228,4.206.476,1.2.794,3.422,2.566,2.282,4.167C82.758,38.964,82.811,38.907,82.6,39.162Z" fill="#fff"/>
    </g>
    <g id="Group_62" data-name="Group 62">
      <path id="Path_97" data-name="Path 97" d="M82.886,32.625c1.175.948-.254-.209,0,0Z" fill="#fff"/>
    </g>
    <g id="Group_63" data-name="Group 63">
      <path id="Path_98" data-name="Path 98" d="M82.577,39.188l.025-.027a1.257,1.257,0,0,0,.08-.109A1.5,1.5,0,0,0,82.577,39.188Z" fill="#fff"/>
    </g>
    <g id="Group_64" data-name="Group 64">
      <path id="Path_99" data-name="Path 99" d="M76.272,41.642c.112.093.274.221-.063-.056a5.947,5.947,0,0,0-8.428,1.143q-1.488,1.763-2.971,3.525c.351.506.764-.117,1.276.174.438.247,6.264,5.041,6.36,5.3.165.453-.256.542.144.865a40.974,40.974,0,0,0,4.951-6.118A4.249,4.249,0,0,0,76.272,41.642ZM74.95,48.317c-.241.293-.044.053-.667.642-.307.29-6.459-4.62-6.211-4.886a4.4,4.4,0,0,1,3.588-1.282C73.856,43.345,76.89,46.014,74.95,48.317Z" fill="#fff"/>
    </g>
  </g>
</svg>
