<svg id="Group_48" data-name="Group 48" xmlns="http://www.w3.org/2000/svg" width="102" height="83" viewBox="0 0 102 83">
  <g id="Group_14" data-name="Group 14">
    <path id="Path_52" data-name="Path 52" d="M1.062.7,50.746,58.362,100.232,1.046Z" fill="#23a9e1"/>
  </g>
  <g id="Group_15" data-name="Group 15">
    <path id="Path_53" data-name="Path 53" d="M80.1,17.113,64.863,17.2c6.021-6.85,8.726-6.117,15.237-.083Z" fill="#fff"/>
  </g>
  <g id="Group_16" data-name="Group 16">
    <path id="Path_54" data-name="Path 54" d="M38.791,22.408H65.558c-1.991-1.219-6.73-6.976-9.338-4.836-.213.176-7.53-8.744-12.336-4.446-4.193,3.754-6.14-.492-10.892,2.482-5.417,3.528,3.13,5.608,5.8,6.8Z" fill="#fff"/>
  </g>
  <path id="Path_55" data-name="Path 55" d="M51.086,0H0V22.2L50.746,83l.34-.419L102,22.9V0Zm0,56.383-.34.4L3.72,1.756H98.447Z" fill="#491213"/>
  <path id="Path_56" data-name="Path 56" d="M50.746,56.787l.34-.4L78.752,24.473c-6.936.938-11.9,6.006-18.664,4.9-3.408-.557-3.51-2.485-4.485-4.4-.748-1.475-1.943-1.288-3.5-1.888-1.447-.558-2.284-1.718-5.179-1.049-2.536.586-2.816,4.465-5.971,4.243-1.695-.12-1.817-2.468-4.258-5.474-6.323-7.482-12.2-6.446-16.3.469Z" fill="#491213"/>
  <g id="Group_17" data-name="Group 17">
    <path id="Path_57" data-name="Path 57" d="M46.714,70.068l4.033-6.424,4.017,6.424-4.017,6.438Z" fill="#23a9e1"/>
  </g>
  <g id="Group_24" data-name="Group 24">
    <g id="Group_18" data-name="Group 18">
      <path id="Path_58" data-name="Path 58" d="M23.356,31.871a2.754,2.754,0,0,1,.809,2.091c-.059.572-.939,1.532-.271,1.824l2.25-2.8c-.6-.149-5.384-5.779-5.461-6.4L17.514,28.3c.165.653,1.3,0,1.86.045a2.941,2.941,0,0,1,1.96,1.138c-1.735,1.432-5.951,4.958-6.395,5.03-.228.036-1.093-.594-1.106-.055-.006.259.856,1,1.018,1.2q1.118,1.31,2.236,2.622c.621-.279-.11-.723.206-1.228.233-.37,4.918-4.217,6.062-5.18Z" fill="#fff"/>
    </g>
    <g id="Group_19" data-name="Group 19">
      <path id="Path_59" data-name="Path 59" d="M18.066,24.973c.444-.094.626.429.961-.055l-2.456-2.883c-.372-.437-.844-.905-.708.018.088.623-6.134,5.6-6.515,5.752-.481.195-.759-.412-1.113.1q1.1,1.288,2.2,2.577c.248.289.479.6.749.872.34.335.209-.664.225-.578-.091-.507.529-.937.858-1.214A60.682,60.682,0,0,1,18.066,24.973Z" fill="#fff"/>
    </g>
    <g id="Group_20" data-name="Group 20">
      <path id="Path_60" data-name="Path 60" d="M9.266,24.066a3.238,3.238,0,0,1-4.221-2.018c-.545-1.813.617-3.713,2.079-4.745,1.443-1.02,3.6-.959,4.387.828a3.522,3.522,0,0,1-.1,2.473c-.161.5-.6.988.057,1.274q1.293-1.625,2.589-3.247c-1.059-.626-1.524-1.663-2.309-2.565a5.9,5.9,0,0,0-3.493-2.257c-2.879-.4-5.592,2.526-5.813,5.183A5.627,5.627,0,0,0,3.7,22.947c.752.982,1.873,1.6,2.442,2.722a22.769,22.769,0,0,0,3.3-1.24,1.5,1.5,0,0,0-.171-.362Z" fill="#fff"/>
    </g>
    <g id="Group_21" data-name="Group 21">
      <path id="Path_61" data-name="Path 61" d="M48.694,60.048c-1.154-.759-4.038-4.635-4.588-5.278-.108-.128-.22-.258-.33-.387a2.341,2.341,0,0,0-.247.189c-.174.143.134.566-.052.854-.8,1.225-5.777,4.924-6.036,5.1-.557.379-1.168-.157-1.494.311a44.692,44.692,0,0,0,3.03,3.541c.48.077.147-.805.211-.988a31.432,31.432,0,0,1,3.561-3.173c.337-.279.69.42.891.714a1.719,1.719,0,0,1,.3,1.551c-.116.366-.719.909-.251,1.159.621-.714,2.369-2.721,2.622-3.012s-.568-.038-.471-.086a.929.929,0,0,1-1.066-.029c-.1-.069-1.093-1.069-.993-1.152A4.631,4.631,0,0,1,45.3,58.276c.866-.21,1.587,1.5,1.715,2.1a3.362,3.362,0,0,1-.076,1.729c-.124.381-.489.688.018.918q1.073-1.442,2.138-2.886a.71.71,0,0,1-.4-.094C48.567,59.964,48.834,60.117,48.694,60.048Z" fill="#fff"/>
    </g>
    <g id="Group_22" data-name="Group 22">
      <path id="Path_62" data-name="Path 62" d="M38.437,55.966a5.226,5.226,0,0,0,.772-7.253,5.452,5.452,0,0,0-7.829-1.04,5.191,5.191,0,0,0-.759,7.238,5.485,5.485,0,0,0,7.817,1.054C39.6,55,38.338,56.035,38.437,55.966Zm-.466-4.7a7.424,7.424,0,0,1-3.745,3.624c-1.824.707-3.109-.817-2.368-2.523a7.43,7.43,0,0,1,3.749-3.623c1.858-.726,3.077.836,2.364,2.522C37.588,52.148,38.042,51.1,37.972,51.268Z" fill="#fff"/>
    </g>
    <g id="Group_23" data-name="Group 23">
      <path id="Path_63" data-name="Path 63" d="M31.972,41.528c.477.059.929.544,1.273.042q-1.115-1.3-2.235-2.606c-.6.266.047.543-.195.96s-2.568.772-3.186.88A15.651,15.651,0,0,1,28.79,38c.546-.44.886.427,1.288-.139l-2.753-3.215c-.311-.362-.561-1.016-.983-.672a8.177,8.177,0,0,1-.089,1.713c-.086.233-.939,3.6-1.932,4.418a21.564,21.564,0,0,1-2.711,2.072c-.543.187-.828-.591-1.224-.038q1.249,1.462,2.5,2.922c.125.146.6.853.769.883.524.093.06-.883.113-1.073.151-.426,2.508-2.687,3.509-2.825a19.72,19.72,0,0,1,4.7-.518Z" fill="#fff"/>
    </g>
  </g>
  <g id="Group_25" data-name="Group 25">
    <path id="Path_64" data-name="Path 64" d="M25.692,22.59c-4.056-.165-2.359-3.908.4-4.752,2.62-.8,8.115,1.7,9.875,3.358-2.791.845-6.407.723-9.478.864-.227-3.083-.961-2.008-.794.53Z" fill="#dc6243"/>
  </g>
  <g id="Group_26" data-name="Group 26">
    <path id="Path_65" data-name="Path 65" d="M26.71,27.383c-2.047-1.56-1.4-5.2,1.769-4.1,4.019,2.06-.859,3.2-1.769,4.1Z" fill="#dc6243"/>
  </g>
  <g id="Group_27" data-name="Group 27">
    <path id="Path_66" data-name="Path 66" d="M35.226,34.992c-8.648-.07-2.8-13.166.141-12.374,3.384,1.06,3,12.474-.141,12.374Z" fill="#dc6243"/>
  </g>
  <g id="Group_28" data-name="Group 28">
    <path id="Path_67" data-name="Path 67" d="M41.352,30.713c-.843,2.472-2.369,2.933-2.2-.069.195-3.462,2.487-2.631,4.946-3.957,2.047-1.106,3.149-5.153,6.663-2.733,1.567,1.08,3.363.177,3.864,1.811-.025-.083-4.56,10.187-2.038,10.187-4.977,0-2.781-5.853-.877-9.783-1.853.875-4.858,6.61-2.39,7.553-1.285,1.666-5.211,3.9-7.258,2.271-1.557-1.234-.694-3.286-.711-5.281Z" fill="#dc6243"/>
  </g>
  <g id="Group_29" data-name="Group 29">
    <path id="Path_68" data-name="Path 68" d="M45.469,40.2c-3.5,1.034-8.149-1.193-2.518-2.313,3.494-.7,7.21.769,2.518,2.313C45.61,40.162,45.341,40.246,45.469,40.2Z" fill="#dc6243"/>
  </g>
  <g id="Group_30" data-name="Group 30">
    <path id="Path_69" data-name="Path 69" d="M49.853,40.064c-.738-1.639.564-3.592,2.689-2.173,1.853,1.237-.854,3.07-2.689,2.173Z" fill="#dc6243"/>
  </g>
  <g id="Group_31" data-name="Group 31">
    <path id="Path_70" data-name="Path 70" d="M46.9,44.678c-2.419-.738-10.571-.554-5.235-2.732,1.645-.671,10.188.1,5.235,2.732Z" fill="#dc6243"/>
  </g>
  <g id="Group_32" data-name="Group 32">
    <path id="Path_71" data-name="Path 71" d="M50.123,44.329c-.007-.949-.514-2.648,1.358-1.923,2.242.869-1.358,2.62-1.358,1.923Z" fill="#dc6243"/>
  </g>
  <g id="Group_33" data-name="Group 33">
    <path id="Path_72" data-name="Path 72" d="M57.366,47.953c-1.442-1.213-2.9-1.28-4.243,0-1.8-3.254-8.345-2.164-11.4-2.62,1.644,3.981,14.913,4.724,15.646,2.62Z" fill="#dc6243"/>
  </g>
  <g id="Group_34" data-name="Group 34">
    <path id="Path_73" data-name="Path 73" d="M55.457,50.348c-3.161-.144-6.693-.556-9.678.083,1.866.461,6.417,1.774,2.179,2.884,1.52,2.143,3.986,2.005,5.6.126A15.523,15.523,0,0,1,52,52.4c1.677-.3,3.245-1.253,3.453-2.049Z" fill="#dc6243"/>
  </g>
  <g id="Group_35" data-name="Group 35">
    <path id="Path_74" data-name="Path 74" d="M59.064,46.517c-5.305-3.075-3.963-5.363.356-7.5,2.26-1.118,7.347-5.147,9.477-3.8q-4.918,5.651-9.833,11.3Z" fill="#dc6243"/>
  </g>
  <g id="Group_36" data-name="Group 36">
    <path id="Path_75" data-name="Path 75" d="M55.287,39.326C50.793,34.779,62,35.2,63.8,33.6c1.315.432,10.8-8.186,13.114-7.65-1.66,1.918-5.237,8.041-7.8,8.041-1.971,0-3.964-.289-5.491,1.094-2.231,2.024-5.927,3.054-8.338,4.244Z" fill="#f49774"/>
  </g>
  <g id="Group_37" data-name="Group 37">
    <path id="Path_76" data-name="Path 76" d="M56.759,33.766c-2.461,1.3-4.788-3.861-.539-3.358,2.823.334,5.68-.234,8.375.223a8.756,8.756,0,0,1-7.837,3.135Z" fill="#f4b1a4"/>
  </g>
  <g id="Group_47" data-name="Group 47">
    <g id="Group_38" data-name="Group 38">
      <path id="Path_77" data-name="Path 77" d="M69.432,51.835a4.847,4.847,0,0,1,.216,1.985c-.107.863-.982,2.891-2.18,2.313a18.235,18.235,0,0,1-3.2-2.522c.8-.925,1.511-1.728,2.862-1.28.371.122.69-.036.3-.259-.405-.231-3.123-1.941-3.272-1.777-.271.306.53.857.222,1.455a6.987,6.987,0,0,1-.935,1.2c-.722-.6-1.929-1.238-1.059-2.23a3.707,3.707,0,0,1,2.1-1.326c.568-.113,1.847.384,2.013-.221l-3.269-1.547c.178.79-3.359,4.472-4.144,5.4-.113.136-.66.6-.666.789-.008.424.624.1.66.083.487-.179,6.837,5.048,6.995,5.407.1.278-.222.567-.029.722-.011-.01.229.214.254.183.392-.463,4.537-5.906,5.392-6.144-.8-1.2-1.593-2.4-2.376-3.608C68.729,50.715,69.3,51.4,69.432,51.835Z" fill="#fff"/>
    </g>
    <g id="Group_39" data-name="Group 39">
      <path id="Path_78" data-name="Path 78" d="M63.251,58.459c-2.084-1.324-5.614,1.265-6.145,1.514-1.042.485-1.795-.537-1.255-1.484a2.788,2.788,0,0,1,2.318-1.274c.278-.018,1.354.195,1.464.025.13-.2.229-.218.042-.342L57.1,55.185c-.177,1.043-1.39,1.707-2.083,2.411a4.626,4.626,0,0,0-1.525,3.119,2.992,2.992,0,0,0,1.682,2.63,3.362,3.362,0,0,0,3.335-.505,19.138,19.138,0,0,1,1.93-1.157c1-.462,2.312-.062,1.959,1.255a3.581,3.581,0,0,1-2.413,2.312,3.35,3.35,0,0,1-1.878-.088c-.433-.14-1-.726-1.234-.111l3.493,2.507a2.3,2.3,0,0,1,1.09-1.545,11.669,11.669,0,0,0,2-2.105C64.619,62.235,65,59.893,63.251,58.459Z" fill="#fff"/>
    </g>
    <g id="Group_40" data-name="Group 40">
      <path id="Path_79" data-name="Path 79" d="M63.251,58.459c.928.591-.593-.488,0,0Z" fill="#fff"/>
    </g>
    <g id="Group_41" data-name="Group 41">
      <path id="Path_80" data-name="Path 80" d="M92.579,21.583Z" fill="#fff"/>
    </g>
    <g id="Group_42" data-name="Group 42">
      <path id="Path_81" data-name="Path 81" d="M100.062,19.4c-.731.72-8.447-2.314-9.011-2.732-.291-.115-.3-1.306-.707-.823s-.813.965-1.22,1.446q-.629.749-1.26,1.5c-.261.31-.539.453-.038.712.84-.414,5.435,7.26,5.024,8.362-.727.372-6.938-5-7.1-5.351-.052-.144.274-1.009-.212-.934-.23.036-.745.885-.892,1.059-.3.353-.594.707-.892,1.059.334.479.519-.021.962.042a13.214,13.214,0,0,1,2.248,1.644c-.727.027-2.694.129-2.944.112-.906.111-.423-.655-1.018-.92q-1.142,1.367-2.284,2.732c-.442.53-.888,1.059-1.33,1.588-.054.064-.047.032.05.111.331.27.1.166.57.006.508-.175,6.58,4.873,6.8,5.129.378.445-.155.964.413,1.207q.9-1.079,1.8-2.158c.091-.109.141-.1.021-.2-.428-.349-.478.21-1.005.152-.535-.088-4.409-3.329-5.914-4.556l8.226-.3c.3-.011,1.143.885,1.071,1.2-.081.374-.465.551.054.785.481-.568.988-1.136,1.461-1.714h0l.228-.279a.723.723,0,0,0,.211-.262l.169-.209c.426-.479,1.806-1.982,1.64-2.125-.463-.4-.686.461-1.3-.053a12.8,12.8,0,0,1-1.448-2.137c-.265-.444.61-.886.967-1.106.779-.476,3.258-1.169,3.493.344.04.255-.272.544-.084.7.044.037.2.239.271.161.164-.195,2.369-2.81,3.312-3.922A1.491,1.491,0,0,0,100.062,19.4Zm-7.4,2.131h0l-.084.053.082-.051a5.768,5.768,0,0,0-.961.752q-.784-1.33-1.569-2.661,1.773.728,3.536,1.464A3.775,3.775,0,0,0,92.664,21.529Z" fill="#fff"/>
    </g>
    <g id="Group_43" data-name="Group 43">
      <path id="Path_82" data-name="Path 82" d="M82.887,32.609a5.451,5.451,0,0,0-7.611.822,5.269,5.269,0,0,0,.607,7.526,5.438,5.438,0,0,0,7.6-.836A5.218,5.218,0,0,0,82.887,32.609ZM82.6,39.145l-.025.027c-1.237,1.277-3.37.095-4.521-.722s-3.121-2.54-1.862-4.056c1.059-1.272,3.134-.228,4.206.476,1.2.794,3.422,2.566,2.282,4.167C82.759,38.948,82.812,38.89,82.6,39.145Z" fill="#fff"/>
    </g>
    <g id="Group_44" data-name="Group 44">
      <path id="Path_83" data-name="Path 83" d="M82.887,32.609c1.175.948-.254-.209,0,0Z" fill="#fff"/>
    </g>
    <g id="Group_45" data-name="Group 45">
      <path id="Path_84" data-name="Path 84" d="M82.578,39.172l.025-.027a1.259,1.259,0,0,0,.08-.109A1.5,1.5,0,0,0,82.578,39.172Z" fill="#fff"/>
    </g>
    <g id="Group_46" data-name="Group 46">
      <path id="Path_85" data-name="Path 85" d="M76.273,41.626c.112.093.274.221-.063-.056a5.947,5.947,0,0,0-8.428,1.143q-1.488,1.763-2.971,3.525c.351.506.764-.117,1.276.174.438.247,6.264,5.04,6.36,5.3.165.453-.256.542.144.865a40.973,40.973,0,0,0,4.951-6.118A4.249,4.249,0,0,0,76.273,41.626ZM74.951,48.3c-.241.293-.044.053-.667.642-.307.29-6.459-4.62-6.211-4.886a4.4,4.4,0,0,1,3.588-1.282C73.857,43.329,76.891,46,74.951,48.3Z" fill="#fff"/>
    </g>
  </g>
</svg>
