<svg id="logotype-desktop.svg" xmlns="http://www.w3.org/2000/svg" width="187" height="96.001" viewBox="0 0 187 96.001">
  <g id="Layer_2" data-name="Layer 2">
    <path id="Path_21" data-name="Path 21" d="M187,0H0L80.64,90.075a16.916,16.916,0,0,0,25.719,0Z" fill="#81b3d3"/>
    <g id="Group_37" data-name="Group 37">
      <g id="Group_5" data-name="Group 5">
        <path id="Path_22" data-name="Path 22" d="M43.325.718,92.942,58.81,142.361,1.069Z" fill="#23a9e1"/>
      </g>
      <g id="Group_6" data-name="Group 6">
        <path id="Path_23" data-name="Path 23" d="M122.256,17.256l-15.215.084c6.012-6.9,8.714-6.163,15.215-.084Z" fill="#fff"/>
      </g>
      <g id="Group_7" data-name="Group 7">
        <path id="Path_24" data-name="Path 24" d="M81,22.59h26.73c-1.989-1.228-6.721-7.028-9.325-4.871C98.2,17.9,90.89,8.91,86.09,13.239c-4.187,3.782-6.132-.5-10.879,2.5C69.8,19.294,78.338,21.389,81,22.59Z" fill="#fff"/>
      </g>
      <path id="Path_25" data-name="Path 25" d="M93.281.016H42.265V22.38L92.943,83.631l.339-.421,50.846-60.128V.016ZM55,1.785h5.472V18.9L55,12.44Zm-.784,9.727L49.239,5.634V1.785H54.22Zm19.341-2.7-5.75-7.031h5.75Zm-6.655,3.811L61.3,1.785h5.609Zm-5.644-9.2,5.535,10.7a58.33,58.33,0,0,0-5.535,4.833Zm6.428-.549,5.619,6.87c-1.119.644-2.161,1.294-3.106,1.923-.892.6-1.727,1.191-2.513,1.775Zm6.656-.2,4.774,4.2a48.748,48.748,0,0,0-4.774,2.283ZM79.93,6.556,74.513,1.785h5.97V6.348C80.3,6.418,80.113,6.485,79.93,6.556ZM99.085,1.785h5l-5,2.428Zm-5.8,0h4.448L93.283,3.831Zm-.94,1.954L88.094,1.785h4.249Zm-5.5.524-5.1-2.478h5.1ZM81.267,2.424,86,4.722a38.891,38.891,0,0,0-4.732,1.341Zm6.359,0,3.472,1.6a32.267,32.267,0,0,0-3.472.388Zm10.444.06V4.42a33.374,33.374,0,0,0-3.363-.386Zm6.486-.065V6.109a40.157,40.157,0,0,0-4.784-1.36Zm.786-.639H111.3l-5.445,4.8c-.168-.065-.341-.124-.511-.187V1.785Zm13.575,0h5.61l-5.61,10.828Zm-6.653,0h5.75l-5.75,6.977Zm-.785.883v6.5a51.054,51.054,0,0,0-4.815-2.262Zm6.654.2V13.329c-.714-.512-1.466-1.031-2.26-1.551-1.025-.672-2.16-1.368-3.387-2.056Zm6.428.55V18.595a63.214,63.214,0,0,0-5.488-4.58Zm.784,15.933V1.785h5.473V13.14l-5.4,6.285C125.4,19.405,125.376,19.381,125.347,19.354Zm6.259-17.569h4.98V6.433l-4.98,5.792Zm-83.151,0V4.708L45.98,1.785ZM61.366,19.949l.141.129a56.835,56.835,0,0,1,9.232-7.614C75.936,9,84,4.882,92.939,4.931c8.917.043,17.1,4.175,22.388,7.633a60.185,60.185,0,0,1,9.465,7.591l-3.882,4.516c-6.925.945-11.887,6.05-18.64,4.934-3.4-.562-3.5-2.5-4.478-4.436-.747-1.486-1.94-1.3-3.494-1.9-1.445-.563-2.281-1.73-5.172-1.056-2.533.59-2.812,4.5-5.963,4.274-1.693-.12-1.814-2.486-4.252-5.515-6.314-7.538-12.181-6.494-16.278.473L92.942,57.223Zm76-14.43V1.785h3.21Z" fill="#491213"/>
      <g id="Group_8" data-name="Group 8">
        <path id="Path_26" data-name="Path 26" d="M88.915,70.6l4.027-6.471L96.954,70.6l-4.012,6.486Z" fill="#23a9e1"/>
      </g>
      <g id="Group_15" data-name="Group 15">
        <g id="Group_9" data-name="Group 9">
          <path id="Path_27" data-name="Path 27" d="M65.589,32.123a2.787,2.787,0,0,1,.807,2.107c-.058.576-.937,1.543-.27,1.838l2.246-2.822c-.6-.15-5.375-5.822-5.452-6.443l-3.165,1.726c.164.658,1.3,0,1.858.046a2.93,2.93,0,0,1,1.957,1.147c-1.73,1.443-5.941,4.995-6.386,5.068-.225.036-1.09-.6-1.1-.056-.006.261.853,1.01,1.016,1.2l2.233,2.641c.62-.281-.111-.729.205-1.238.231-.372,4.91-4.248,6.054-5.219Z" fill="#fff"/>
        </g>
        <g id="Group_10" data-name="Group 10">
          <path id="Path_28" data-name="Path 28" d="M60.305,25.173c.445-.095.625.432.96-.056q-1.226-1.453-2.454-2.9c-.372-.44-.842-.912-.707.018.089.627-6.125,5.639-6.505,5.794-.48.2-.759-.415-1.111.1q1.1,1.3,2.2,2.6c.246.291.478.609.748.878.34.338.208-.669.224-.582-.091-.511.528-.944.857-1.223A60.808,60.808,0,0,1,60.305,25.173Z" fill="#fff"/>
        </g>
        <g id="Group_11" data-name="Group 11">
          <path id="Path_29" data-name="Path 29" d="M51.518,24.261A3.226,3.226,0,0,1,47.3,22.228c-.544-1.827.615-3.74,2.075-4.78,1.443-1.027,3.6-.966,4.381.834a3.571,3.571,0,0,1-.094,2.491c-.16.5-.6,1,.056,1.283q1.292-1.637,2.586-3.272c-1.057-.63-1.52-1.676-2.3-2.584a5.879,5.879,0,0,0-3.489-2.274c-2.875-.4-5.585,2.545-5.806,5.222a5.707,5.707,0,0,0,1.248,3.983c.751.99,1.872,1.616,2.44,2.742a22.657,22.657,0,0,0,3.292-1.249,1.558,1.558,0,0,0-.17-.364Z" fill="#fff"/>
        </g>
        <g id="Group_12" data-name="Group 12">
          <path id="Path_30" data-name="Path 30" d="M90.894,60.509c-1.153-.765-4.034-4.669-4.583-5.317q-.162-.194-.33-.39a2.328,2.328,0,0,0-.246.191c-.173.143.134.57-.052.86-.794,1.236-5.768,4.961-6.027,5.14-.557.382-1.166-.158-1.492.316a45.329,45.329,0,0,0,3.024,3.566c.481.078.149-.812.211-1a31.394,31.394,0,0,1,3.556-3.2c.337-.281.688.423.89.719a1.746,1.746,0,0,1,.3,1.562c-.116.368-.717.916-.25,1.168.621-.719,2.367-2.741,2.619-3.035s-.568-.037-.47-.087a.919.919,0,0,1-1.065-.029c-.1-.071-1.091-1.077-.993-1.161a4.626,4.626,0,0,1,1.52-1.094c.864-.212,1.585,1.508,1.712,2.12a3.426,3.426,0,0,1-.076,1.742c-.124.384-.489.693.017.925q1.07-1.453,2.135-2.907a.718.718,0,0,1-.4-.1C90.766,60.424,91.032,60.579,90.894,60.509Z" fill="#fff"/>
        </g>
        <g id="Group_13" data-name="Group 13">
          <path id="Path_31" data-name="Path 31" d="M80.65,56.4a5.3,5.3,0,0,0,.77-7.307A5.414,5.414,0,0,0,73.6,48.042a5.263,5.263,0,0,0-.759,7.293A5.448,5.448,0,0,0,80.65,56.4C81.807,55.425,80.55,56.466,80.65,56.4Zm-.466-4.732a7.438,7.438,0,0,1-3.739,3.651c-1.822.712-3.106-.823-2.366-2.542a7.456,7.456,0,0,1,3.745-3.65c1.855-.732,3.072.842,2.36,2.541C79.8,52.55,80.255,51.5,80.184,51.664Z" fill="#fff"/>
        </g>
        <g id="Group_14" data-name="Group 14">
          <path id="Path_32" data-name="Path 32" d="M74.194,41.852c.475.06.928.548,1.27.042l-2.231-2.625c-.6.268.047.547-.2.967s-2.564.778-3.181.886A15.622,15.622,0,0,1,71.016,38.3c.545-.443.885.43,1.285-.14q-1.375-1.619-2.748-3.239c-.311-.364-.56-1.023-.983-.677a8.3,8.3,0,0,1-.088,1.725c-.086.235-.938,3.622-1.93,4.45a21.556,21.556,0,0,1-2.707,2.088c-.542.188-.827-.6-1.222-.038l2.5,2.944c.125.147.6.859.768.889.522.094.059-.889.113-1.081.151-.429,2.5-2.707,3.5-2.846a19.538,19.538,0,0,1,4.69-.522Z" fill="#fff"/>
        </g>
      </g>
      <g id="Group_16" data-name="Group 16">
        <path id="Path_33" data-name="Path 33" d="M67.922,22.773c-4.051-.166-2.355-3.937.395-4.787,2.617-.809,8.1,1.709,9.862,3.383-2.788.851-6.4.729-9.465.87-.226-3.106-.959-2.023-.792.534Z" fill="#dc6243"/>
      </g>
      <g id="Group_17" data-name="Group 17">
        <path id="Path_34" data-name="Path 34" d="M77.443,35.267C68.807,35.2,74.646,22,77.584,22.8c3.379,1.068,3,12.566-.141,12.466Z" fill="#dc6243"/>
      </g>
      <g id="Group_18" data-name="Group 18">
        <path id="Path_35" data-name="Path 35" d="M83.56,30.957c-.841,2.49-2.366,2.955-2.2-.07.194-3.488,2.483-2.65,4.939-3.986,2.044-1.114,3.144-5.191,6.653-2.753,1.565,1.088,3.358.178,3.858,1.825-.026-.084-4.554,10.263-2.035,10.263-4.971,0-2.779-5.9-.876-9.855-1.851.881-4.851,6.659-2.387,7.609-1.283,1.679-5.2,3.928-7.249,2.288-1.552-1.243-.69-3.31-.708-5.32Z" fill="#dc6243"/>
      </g>
      <g id="Group_19" data-name="Group 19">
        <path id="Path_36" data-name="Path 36" d="M87.673,40.517c-3.5,1.041-8.138-1.2-2.515-2.33,3.49-.7,7.2.775,2.515,2.33C87.813,40.476,87.544,40.56,87.673,40.517Z" fill="#dc6243"/>
      </g>
      <g id="Group_20" data-name="Group 20">
        <path id="Path_37" data-name="Path 37" d="M92.051,40.377c-.737-1.651.562-3.619,2.685-2.189,1.85,1.246-.853,3.092-2.685,2.189Z" fill="#dc6243"/>
      </g>
      <g id="Group_21" data-name="Group 21">
        <path id="Path_38" data-name="Path 38" d="M89.1,45.025c-2.416-.744-10.557-.559-5.228-2.752,1.643-.676,10.173.1,5.228,2.752Z" fill="#dc6243"/>
      </g>
      <g id="Group_22" data-name="Group 22">
        <path id="Path_39" data-name="Path 39" d="M99.552,48.324c-1.439-1.222-2.9-1.289-4.237,0-1.8-3.278-8.335-2.18-11.388-2.639,1.642,4.01,14.893,4.759,15.625,2.639Z" fill="#dc6243"/>
      </g>
      <g id="Group_23" data-name="Group 23">
        <path id="Path_40" data-name="Path 40" d="M97.647,50.737c-3.157-.145-6.684-.561-9.665.084,1.865.464,6.408,1.787,2.176,2.905,1.518,2.158,3.981,2.021,5.595.126A15.308,15.308,0,0,1,94.2,52.8c1.674-.3,3.24-1.262,3.449-2.064Z" fill="#dc6243"/>
      </g>
      <g id="Group_24" data-name="Group 24">
        <path id="Path_41" data-name="Path 41" d="M101.25,46.877c-5.3-3.1-3.959-5.4.354-7.553,2.258-1.126,7.338-5.185,9.465-3.833q-4.91,5.693-9.819,11.386Z" fill="#dc6243"/>
      </g>
      <g id="Group_25" data-name="Group 25">
        <path id="Path_42" data-name="Path 42" d="M97.477,39.633c-4.489-4.581,6.7-4.16,8.5-5.77,1.314.435,10.789-8.246,13.1-7.707-1.659,1.932-5.23,8.1-7.791,8.1-1.968,0-3.958-.291-5.481,1.1-2.229,2.039-5.921,3.076-8.328,4.275Z" fill="#f49774"/>
      </g>
      <g id="Group_26" data-name="Group 26">
        <path id="Path_43" data-name="Path 43" d="M98.947,34.032c-2.458,1.313-4.782-3.89-.538-3.383,2.818.337,5.673-.236,8.363.225a8.7,8.7,0,0,1-7.825,3.158Z" fill="#f4b1a4"/>
      </g>
      <g id="Group_36" data-name="Group 36">
        <g id="Group_27" data-name="Group 27">
          <path id="Path_44" data-name="Path 44" d="M111.6,52.235a4.922,4.922,0,0,1,.214,2c-.107.869-.98,2.912-2.176,2.33a18.241,18.241,0,0,1-3.194-2.541c.8-.931,1.51-1.741,2.859-1.289.371.122.689-.036.3-.261-.406-.233-3.12-1.955-3.266-1.79-.272.309.529.864.22,1.466a6.988,6.988,0,0,1-.933,1.214c-.721-.6-1.927-1.247-1.059-2.246a3.7,3.7,0,0,1,2.1-1.336c.566-.113,1.845.387,2.01-.222L105.415,48c.177.8-3.355,4.505-4.139,5.44-.113.136-.659.607-.665.793-.009.427.623.1.658.084.487-.179,6.83,5.086,6.986,5.447.1.28-.221.571-.03.729-.01-.01.228.215.253.183.392-.466,4.532-5.949,5.384-6.19-.795-1.21-1.59-2.419-2.373-3.636C110.9,51.107,111.473,51.795,111.6,52.235Z" fill="#fff"/>
        </g>
        <g id="Group_28" data-name="Group 28">
          <path id="Path_45" data-name="Path 45" d="M105.429,58.908c-2.081-1.333-5.606,1.274-6.137,1.525-1.041.49-1.792-.541-1.252-1.5a2.778,2.778,0,0,1,2.313-1.283c.278-.017,1.353.2,1.462.026.13-.2.228-.219.042-.343l-2.572-1.726c-.176,1.05-1.388,1.718-2.081,2.43a4.668,4.668,0,0,0-1.522,3.143,3.017,3.017,0,0,0,1.68,2.648,3.334,3.334,0,0,0,3.33-.509,19.265,19.265,0,0,1,1.928-1.166c1-.465,2.307-.062,1.957,1.264a3.592,3.592,0,0,1-2.41,2.329,3.317,3.317,0,0,1-1.876-.089c-.433-.141-1-.732-1.233-.112q1.745,1.263,3.49,2.526a2.325,2.325,0,0,1,1.087-1.557,11.652,11.652,0,0,0,2-2.121C106.8,62.712,107.177,60.354,105.429,58.908Z" fill="#fff"/>
        </g>
        <g id="Group_29" data-name="Group 29">
          <path id="Path_46" data-name="Path 46" d="M105.429,58.908c.927.6-.591-.492,0,0Z" fill="#fff"/>
        </g>
        <g id="Group_30" data-name="Group 30">
          <path id="Path_47" data-name="Path 47" d="M134.719,21.759Z" fill="#fff"/>
        </g>
        <g id="Group_31" data-name="Group 31">
          <path id="Path_48" data-name="Path 48" d="M142.192,19.558c-.731.726-8.436-2.331-9-2.752-.291-.115-.3-1.315-.706-.829s-.811.972-1.217,1.457q-.628.754-1.258,1.506c-.26.313-.538.456-.038.717.839-.417,5.427,7.314,5.017,8.424-.725.374-6.928-5.035-7.095-5.391-.051-.145.275-1.016-.211-.941-.228.036-.744.892-.89,1.067-.3.355-.593.712-.891,1.067.333.483.518-.021.961.042a13.2,13.2,0,0,1,2.245,1.657c-.725.027-2.689.13-2.939.113-.906.112-.423-.66-1.017-.927l-2.281,2.752-1.329,1.6c-.054.065-.047.032.049.112.331.272.105.167.57.006.507-.176,6.571,4.909,6.789,5.167.378.448-.154.971.412,1.216q.9-1.087,1.8-2.174c.091-.11.141-.1.021-.2-.428-.351-.477.211-1,.153-.535-.089-4.4-3.354-5.906-4.59l8.215-.3c.3-.011,1.141.892,1.071,1.211-.081.376-.464.556.053.79.481-.572.988-1.144,1.459-1.726h0l.227-.281a.749.749,0,0,0,.21-.264l.168-.21c.426-.483,1.8-2,1.638-2.141-.462-.4-.686.464-1.3-.054a12.843,12.843,0,0,1-1.447-2.152c-.264-.447.61-.893.966-1.114.778-.48,3.253-1.178,3.49.346.04.257-.272.548-.084.7.044.037.2.241.27.162.163-.2,2.367-2.83,3.306-3.951A1.487,1.487,0,0,0,142.192,19.558ZM134.8,21.7h0l-.084.054.082-.052a5.727,5.727,0,0,0-.96.758q-.785-1.34-1.568-2.681,1.769.733,3.532,1.474A3.725,3.725,0,0,0,134.8,21.7Z" fill="#fff"/>
        </g>
        <g id="Group_32" data-name="Group 32">
          <path id="Path_49" data-name="Path 49" d="M125.04,32.866a5.411,5.411,0,0,0-7.6.828,5.339,5.339,0,0,0,.606,7.581,5.4,5.4,0,0,0,7.588-.842A5.29,5.29,0,0,0,125.04,32.866Zm-.283,6.585a.208.208,0,0,1-.026.027c-1.234,1.286-3.364.1-4.514-.728s-3.117-2.559-1.86-4.086c1.057-1.281,3.13-.23,4.2.48,1.2.8,3.419,2.585,2.281,4.2C124.913,39.252,124.965,39.194,124.757,39.451Z" fill="#fff"/>
        </g>
        <g id="Group_33" data-name="Group 33">
          <path id="Path_50" data-name="Path 50" d="M125.04,32.866c1.173.955-.253-.21,0,0Z" fill="#fff"/>
        </g>
        <g id="Group_34" data-name="Group 34">
          <path id="Path_51" data-name="Path 51" d="M124.73,39.478l.027-.027c.029-.037.055-.073.08-.11A1.517,1.517,0,0,0,124.73,39.478Z" fill="#fff"/>
        </g>
        <g id="Group_35" data-name="Group 35">
          <path id="Path_52" data-name="Path 52" d="M118.435,41.95c.112.094.274.223-.064-.057a5.906,5.906,0,0,0-8.418,1.152q-1.485,1.776-2.967,3.551c.352.51.764-.117,1.276.175.436.249,6.256,5.079,6.35,5.342.165.456-.254.546.144.871a41.272,41.272,0,0,0,4.944-6.164A4.3,4.3,0,0,0,118.435,41.95Zm-1.321,6.724c-.241.295-.044.054-.666.647-.307.292-6.45-4.654-6.2-4.922a4.374,4.374,0,0,1,3.584-1.291C116.023,43.666,119.052,46.354,117.115,48.674Z" fill="#fff"/>
        </g>
      </g>
    </g>
  </g>
</svg>
