<svg xmlns="http://www.w3.org/2000/svg" width="228.453" height="38.734" viewBox="0 0 228.453 38.734">
  <path id="Sedona" d="M121.634,38.714q-.379-.03-.784-.029a22.8,22.8,0,0,1-3.92-.7,18.7,18.7,0,0,1-3.746-1.452,18.9,18.9,0,0,1-7.665-7.288,19.128,19.128,0,0,1-2.787-9.843q0-.754.058-1.51a11.7,11.7,0,0,1,.232-1.568,22.922,22.922,0,0,1,.813-3.049,18.9,18.9,0,0,1,1.278-2.933A18.372,18.372,0,0,1,112.545,2.8a20.36,20.36,0,0,1,9.93-2.614c.464,0,.938.02,1.423.058l1.422.117A21.212,21.212,0,0,1,129.589,1.4a20,20,0,0,1,4.036,1.975,18.139,18.139,0,0,1,6.388,7.114,20.144,20.144,0,0,1,2.264,9.263q0,.581-.029,1.19a8.061,8.061,0,0,1-.145,1.191,14.731,14.731,0,0,1-.436,2.41,20.919,20.919,0,0,1-.784,2.352,18.52,18.52,0,0,1-7.607,8.739,20.759,20.759,0,0,1-10.859,3.107Q122.011,38.743,121.634,38.714Zm-4.5-28.31a9.663,9.663,0,0,0-3.484,4.936,1.1,1.1,0,0,0-.087.232.94.94,0,0,0-.029.232,9.677,9.677,0,0,0-.291,1.075q-.117.552-.232,1.132-.059.407-.087.784c-.02.252-.029.514-.029.784v.435a1.771,1.771,0,0,0,.058.436,12.23,12.23,0,0,0,1.887,5.837,8.039,8.039,0,0,0,4.733,3.629c.232.078.464.145.7.2a7.224,7.224,0,0,0,.755.145q.348.059.7.087c.233.02.465.029.7.029a9.086,9.086,0,0,0,5.546-1.829,10.249,10.249,0,0,0,3.572-4.907q.174-.58.319-1.219a9.868,9.868,0,0,0,.2-1.278q.057-.406.087-.813c.019-.27.029-.522.029-.755s-.01-.465-.029-.7-.029-.464-.029-.7a13.724,13.724,0,0,0-1.51-4.82,8.912,8.912,0,0,0-3.368-3.6q-.581-.29-1.161-.522t-1.161-.406q-.581-.116-1.161-.2a7.832,7.832,0,0,0-1.161-.087A8.947,8.947,0,0,0,117.133,10.4ZM13.273,38.743h-.319A19.141,19.141,0,0,1,6.1,37.2,20.83,20.83,0,0,1,.119,33.4l4.646-7.433c.038.039.067.068.087.087s.048.049.087.087a24.6,24.6,0,0,0,3.542,3.223,7.97,7.97,0,0,0,4.53,1.6.494.494,0,0,1,.145.029.452.452,0,0,0,.145.029.483.483,0,0,1,.145.029.462.462,0,0,0,.145.029,4.376,4.376,0,0,0,.493-.029,3.653,3.653,0,0,0,.494-.087,5.127,5.127,0,0,0,1.771-.7,3.944,3.944,0,0,0,1.307-1.278l.116-.232.116-.232a6.948,6.948,0,0,0,.174-.755,3.954,3.954,0,0,0,.058-.639,3.253,3.253,0,0,0-1.364-2.642,10.79,10.79,0,0,0-2.933-1.655,12.7,12.7,0,0,0-1.22-.378q-.581-.144-1.1-.261a.243.243,0,0,1-.116-.029.268.268,0,0,0-.116-.029A18.5,18.5,0,0,1,5.927,19.9,7.834,7.834,0,0,1,2.5,15.456q-.174-.58-.319-1.219a9.567,9.567,0,0,1-.2-1.336,1.771,1.771,0,0,1-.058-.436V12.03c0-.309.009-.619.029-.929a5.12,5.12,0,0,1,.145-.929,12.769,12.769,0,0,1,.58-2.323A8.779,8.779,0,0,1,3.72,5.758,10.8,10.8,0,0,1,8.511,1.345,14.62,14.62,0,0,1,14.637.009,13.945,13.945,0,0,1,16.176.1q.784.087,1.6.2a20.546,20.546,0,0,1,4.152,1.161,22.678,22.678,0,0,1,3.8,1.917L22.535,10.52a22.37,22.37,0,0,0-3.31-2.033,8.325,8.325,0,0,0-3.775-.871h-.464a4.682,4.682,0,0,0-2.5,1.19,2.9,2.9,0,0,0-1.161,2.178,2.072,2.072,0,0,0,.029.349.875.875,0,0,0,.145.348,2.042,2.042,0,0,0,.406.755,4.923,4.923,0,0,0,.639.639,6.318,6.318,0,0,0,1.858.958q1.22.436,2.555.842,1.1.291,2.149.552t1.742.493a9.013,9.013,0,0,1,4.878,3.862,11.364,11.364,0,0,1,1.684,5.72v.291q0,.348-.029.7c-.02.232-.029.445-.029.639a14.6,14.6,0,0,1-1.945,5.749,10.931,10.931,0,0,1-4.268,4.181,15.045,15.045,0,0,1-2.033.784q-1.045.319-2.091.552-.871.174-1.742.261t-1.684.087Zm205.195-.813-1.858-6.678H202.324l-1.917,6.678h-9.988L203.137.938h12.6L228.572,37.93ZM209.321,7.471a6.544,6.544,0,0,0-.145.668.464.464,0,0,0-.058.2.478.478,0,0,1-.058.2q-.174.871-.378,1.684t-.436,1.626l-3.775,12.253h10.046l-3.775-12.253q-.291-.871-.552-1.829t-.436-1.887a4.735,4.735,0,0,1-.174-.668q-.059-.319-.116-.61Q209.408,7.153,209.321,7.471ZM175.9,37.93,161.847,18.824a10.242,10.242,0,0,1-1.1-1.655q-.522-.958-.987-2-.349-.754-.668-1.481t-.61-1.365q.29,1.8.464,3.659t.174,3.717V37.93h-9.756V.938h9.756l13.937,18.99q.522.814,1.016,1.713t.958,1.829l.7,1.51q.348.755.7,1.452-.058-.638-.145-1.219t-.145-1.219q-.117-1.161-.174-2.381t-.058-2.5V.938h9.7V37.93Zm-101.392,0H64.346V.938H76.919q.9,0,1.771.058a36.858,36.858,0,0,1,6.185.871,15.2,15.2,0,0,1,5.6,2.555A15.245,15.245,0,0,1,95.531,10.4a20.178,20.178,0,0,1,2.033,7.665,4.286,4.286,0,0,1,.058.7v1.452a20.6,20.6,0,0,1-1.975,7.956,16.02,16.02,0,0,1-5.168,6.272A16.8,16.8,0,0,1,84.555,37a40.325,40.325,0,0,1-6.446.871q-.93.058-1.829.058Zm-.233-8.3a2.749,2.749,0,0,1,.378.029,2.556,2.556,0,0,0,.378.029,2.558,2.558,0,0,1,.406.029,2.031,2.031,0,0,0,.349.029c.387,0,.793-.009,1.219-.029s.832-.048,1.22-.087a15.289,15.289,0,0,0,2.961-.523A8.5,8.5,0,0,0,83.8,27.883a7.9,7.9,0,0,0,2.758-3.629,13,13,0,0,0,.9-4.791V19a1.934,1.934,0,0,0-.058-.464,11.84,11.84,0,0,0-1.045-4.268A8.246,8.246,0,0,0,83.8,10.984a6.678,6.678,0,0,0-2.7-1.336,15.885,15.885,0,0,0-3.049-.406H74.276Zm-39.6,8.3V.938H57.378V9.01H44.6v6.446H56.623v7.9H44.6v6.272H57.378v8.3Z" transform="translate(-0.119 -0.009)" fill="#fff"/>
</svg>
