<svg xmlns="http://www.w3.org/2000/svg" width="280.854" height="213.695" viewBox="0 0 280.854 213.695">
  <g id="text-index.svg" transform="translate(-0.001)">
    <g id="Group_7" data-name="Group 7">
      <path id="Path_24" data-name="Path 24" d="M101.053,42.73l-.124.14a3.941,3.941,0,0,1-2.762,1.353l1.724-2.97c1.108-1.916.088-3.726-1.637-3.726-1.407,0-2.5.562-3.552,2.39l-.9,1.564-.75,1.281-.094.108c-1.319,1.53-2.6,2.741-3.412,2.741-.4,0-.633-.281-.211-1l3.923-6.837h1.494l.528-.879H93.77l1.724-2.987H93.665L91.941,36.9H90.287l-.528.879H91.43l-3.677,6.362c-.774,1.353-.228,2.6,1.249,2.6a5.54,5.54,0,0,0,3.367-1.883c0,2.329,3.236,2.785,5.216.283h.4a5.55,5.55,0,0,0,3.747-1.774A1.571,1.571,0,0,0,101.053,42.73Zm-3.9.124h-.089a1.08,1.08,0,0,0-1.073,1.09,1.2,1.2,0,0,0,.177.616l-.018.035c-.862,1.477-2.955,1.2-1.865-.7l1.389-2.408.88-1.494c1.284-2.179,3.042-1.318,1.934.58Z" fill="#766458"/>
      <path id="Path_25" data-name="Path 25" d="M126.377,42.73l-.123.14c-1.319,1.53-3.008,2.741-4.291,2.741-1.126,0-1.795-.7-.95-2.179l.175-.317c1.179.493,3.4.264,4.767-2.109l.264-.457c.985-1.687.035-2.953-1.46-2.953a3.87,3.87,0,0,0-3.43,2.109l-1.775,3.042-.106.121c-1.319,1.528-2.6,2.741-3.412,2.741-.4,0-.633-.281-.211-1l2.638-4.622c.791-1.388.036-2.39-.985-2.39a3.7,3.7,0,0,0-2.55,1.388l2.919-5.079h-1.829l-5.1,8.846-.1.117c-1.319,1.53-2.6,2.741-3.412,2.741-.4,0-.633-.281-.211-1l3.922-6.837h1.495l.528-.879h-1.513l1.724-2.987h-1.829l-1.724,2.988h-1.653l-.528.879h1.671l-3.677,6.362c-.774,1.353-.228,2.6,1.249,2.6a4.1,4.1,0,0,0,2.334-.993l-.471.817h1.846l2.779-4.832c2.814-3.534,4.062-3.076,3.271-1.723l-2.375,4.131c-.774,1.354-.228,2.6,1.249,2.6,1.088,0,2.3-.839,3.449-1.964a2.223,2.223,0,0,0,2.477,1.964c2.075,0,4.133-1.617,5.646-3.375A1.558,1.558,0,0,0,126.377,42.73Zm-3.483-2.566c1.056-1.81,2.921-1.512,1.83.387l-.265.457a2.194,2.194,0,0,1-2.743,1.213Z" fill="#766458"/>
      <path id="Path_26" data-name="Path 26" d="M193.066,42.73l-.123.14a11.472,11.472,0,0,1-2.2,1.986c.58-1.74.458-4.412,1.584-6.749l-1.372-.738c-.756,1.037-2.409,3.428-4.063,5.361h0l-.122.14c-1.318,1.53-2.6,2.741-3.413,2.741-.4,0-.632-.281-.21-1l3.9-6.837h-1.829l-3.254,5.677c-1.39,1.265-2.462,1.969-2.814,1.81-.457-.192,0-.878.229-1.265l3.571-6.221h-1.83l-2.868,4.959-.121.139a3.941,3.941,0,0,1-2.761,1.353l1.723-2.97c1.108-1.916.09-3.726-1.636-3.726-1.407,0-2.5.562-3.552,2.39l-.9,1.564-.749,1.28-.095.109c-1.318,1.53-3.007,2.741-4.291,2.741-1.126,0-1.795-.7-.951-2.179l.177-.317c1.178.493,3.4.264,4.767-2.109l.265-.457c.984-1.687.034-2.953-1.461-2.953a3.87,3.87,0,0,0-3.43,2.109l-1.773,3.042-.106.121a12.214,12.214,0,0,1-4.258,3.479l4.1-6.995h-1.073a1.934,1.934,0,0,0-1.917-1.757,4.063,4.063,0,0,0-3.131,2.109l-1.754,3.026,0,0-.123.14c-1.318,1.528-2.6,2.741-3.412,2.741-.405,0-.633-.281-.211-1l1.829-3.2a1.866,1.866,0,0,0-.265-2.478L152.123,37.7a.713.713,0,0,1,.106-1.055l-.949-1.037a1.941,1.941,0,0,0-.475,2.812l.159.211c-.809,1.143-1.9,2.688-3.1,4.1v0l-.122.14a3.947,3.947,0,0,1-2.762,1.353l1.723-2.97c1.109-1.916.089-3.726-1.636-3.726-1.406,0-2.5.563-3.552,2.39l-.9,1.564-.75,1.282-.093.107a12.213,12.213,0,0,1-4.257,3.479l4.1-6.995h-1.073A1.934,1.934,0,0,0,136.63,37.6a4.065,4.065,0,0,0-3.131,2.109l-2.568,4.429c-.775,1.353-.229,2.6,1.248,2.6a3.488,3.488,0,0,0,1.742-.615l-.51.861c-2.462.756-4.01,1.757-4.01,3.128,0,1.758,2.691,2.127,4.01-.123l1.389-2.408a11.149,11.149,0,0,0,4.386-2.735c-.013,2.339,3.234,2.8,5.217.292h.4a5.547,5.547,0,0,0,3.747-1.775h0c.878-1.019,1.564-1.934,3.024-3.919l.246.3a.9.9,0,0,1,.106,1.036L150,44.135c-.775,1.354-.229,2.6,1.249,2.6a4.887,4.887,0,0,0,2.933-1.484,1.409,1.409,0,0,0,1.586,1.484,3.49,3.49,0,0,0,1.742-.616l-.511.86c-2.462.756-4.009,1.757-4.009,3.128,0,1.758,2.691,2.126,4.009-.123l1.389-2.408a11.267,11.267,0,0,0,4.469-2.818,2.22,2.22,0,0,0,2.478,1.975,6.772,6.772,0,0,0,4.244-1.954c-.071,2.393,3.217,2.882,5.218.354h.4a5.131,5.131,0,0,0,2.034-.523c-.492,1.27-.039,2.123,1.007,2.123,1,0,2.128-.914,3.007-1.757a1.426,1.426,0,0,0,1.566,1.757c1.513,0,3.254-1.616,4.767-3.374h0c1.037-1.2,1.952-2.478,2.6-3.338-.721,1.9-.335,5.307-2.075,5.307a1.018,1.018,0,0,1-.861-.668l-1.144.6a1.994,1.994,0,0,0,2,1.477,4.6,4.6,0,0,0,.509-.037c.018,0,.036-.017.054-.017,1.863-.245,3.71-1.721,5.082-3.321A1.152,1.152,0,0,0,193.066,42.73Zm-26.257-2.566c1.056-1.81,2.919-1.512,1.828.387l-.264.457a2.195,2.195,0,0,1-2.744,1.213ZM131.881,49.69c-.387.686-1,.581-1,.089,0-.474.44-1.019,1.829-1.564Zm.845-4.078c-.4,0-.633-.281-.211-1l2.551-4.447c.984-1.7,2.938-1.265,2.04.387l-1.389,2.426C134.608,44.752,133.5,45.613,132.726,45.613Zm11.238-2.758h-.089a1.08,1.08,0,0,0-1.072,1.09,1.209,1.209,0,0,0,.175.616l-.017.035c-.861,1.477-2.955,1.2-1.864-.7l1.389-2.408.88-1.494c1.285-2.179,3.042-1.318,1.935.58Zm11.5,6.836c-.388.686-1,.581-1,.089,0-.474.44-1.019,1.829-1.564Zm.844-4.078c-.4,0-.632-.281-.211-1l2.551-4.447c.984-1.7,2.938-1.265,2.04.387L159.3,42.977C158.192,44.752,157.082,45.613,156.309,45.613Zm18.045-2.758h-.089a1.08,1.08,0,0,0-1.073,1.09,1.209,1.209,0,0,0,.175.616l-.017.035c-.861,1.477-2.955,1.2-1.864-.7l1.389-2.408.88-1.494c1.284-2.179,3.042-1.318,1.935.58Z" fill="#766458"/>
    </g>
    <rect id="Rectangle_17" data-name="Rectangle 17" width="17.665" height="1.194" transform="translate(61.956 40.79)" fill="#766458"/>
    <rect id="Rectangle_18" data-name="Rectangle 18" width="17.665" height="1.194" transform="translate(200.626 40.79)" fill="#766458"/>
    <g id="Group_8" data-name="Group 8">
      <path id="Path_27" data-name="Path 27" d="M99.685,0h4.708l-.739,27.419H94.782L93.575,16.1l-1.206,11.32H83.456L82.756,0h4.67l.389,22.678h.506L91.24,0h4.631l3,22.678h.467Z" fill="#81b3d3"/>
      <path id="Path_28" data-name="Path 28" d="M119.142,22.678v4.741H106.377V0h12.765V4.7h-8.095V11.32h6.46v4.7h-6.46v6.658Z" fill="#81b3d3"/>
      <path id="Path_29" data-name="Path 29" d="M132.178,22.678v4.741H121.009V0h4.671V22.678Z" fill="#81b3d3"/>
      <path id="Path_30" data-name="Path 30" d="M142.1,17.312l4.709-1.1v8.3a2.934,2.934,0,0,1-2.88,2.9h-7.006a2.908,2.908,0,0,1-2.879-2.9V2.9A2.883,2.883,0,0,1,136.924,0h7a2.908,2.908,0,0,1,2.88,2.9V8.461l-4.709,1.1V4.7h-3.386V22.678H142.1V17.312Z" fill="#81b3d3"/>
      <path id="Path_31" data-name="Path 31" d="M159.494,0a2.908,2.908,0,0,1,2.881,2.9V24.52a2.934,2.934,0,0,1-2.881,2.9h-7.006a2.909,2.909,0,0,1-2.88-2.9V2.9a2.884,2.884,0,0,1,2.88-2.9Zm-1.828,4.7h-3.387V22.678h3.387Z" fill="#81b3d3"/>
      <path id="Path_32" data-name="Path 32" d="M177.666,0h4.63V27.419h-4.671V13.944l-1.868,6.972H171.2l-1.829-6.972V27.419h-4.671V0h4.631L173.5,13.239Z" fill="#81b3d3"/>
      <path id="Path_33" data-name="Path 33" d="M197.4,22.678v4.741H184.631V0H197.4V4.7h-8.1V11.32h6.46v4.7H189.3v6.658Z" fill="#81b3d3"/>
    </g>
    <g id="Group_9" data-name="Group 9">
      <path id="Path_34" data-name="Path 34" d="M27.164,96.209a12.5,12.5,0,0,0-7.882-3.03c-2.182,0-5.094,1.272-5.094,3.817,0,2.666,3.214,3.7,5.276,4.362l3.032.909c6.367,1.878,11.277,5.089,11.277,12.481,0,4.545-1.092,9.21-4.729,12.3a20.061,20.061,0,0,1-12.975,4.3A28.228,28.228,0,0,1,0,126.139l5.094-9.573c2.972,2.605,6.488,4.726,10.55,4.726,2.789,0,5.761-1.394,5.761-4.606,0-3.332-4.669-4.484-7.216-5.21C6.732,109.355,1.82,107.418,1.82,98.57c0-9.271,6.608-15.329,15.765-15.329A31.291,31.291,0,0,1,31.9,87Z" fill="#fff"/>
      <path id="Path_35" data-name="Path 35" d="M56.1,94.512v7.634H69.5v10.059H56.1v7.874H70.226v10.059H44.214V84.455H70.226V94.513H56.1Z" fill="#fff"/>
      <path id="Path_36" data-name="Path 36" d="M79.059,84.454H95.915a22.845,22.845,0,1,1,0,45.683H79.059Zm11.885,35.627h2.668c7.094,0,13.158-3.877,13.158-12.784,0-8.18-5.4-12.784-13.037-12.784H90.943Z" fill="#fff"/>
      <path id="Path_37" data-name="Path 37" d="M175.245,106.448c0,14.783-10.612,25.206-25.287,25.206s-25.284-10.421-25.284-25.206c0-13.815,12.127-23.509,25.284-23.509S175.245,92.633,175.245,106.448Zm-38.2.06c0,7.877,5.821,13.632,12.914,13.632s12.916-5.756,12.916-13.632c0-6.3-5.819-12.057-12.916-12.057S137.045,100.208,137.045,106.509Z" fill="#fff"/>
      <path id="Path_38" data-name="Path 38" d="M181.577,84.454h11.884l21.769,27.931h.12V84.454h11.884v45.683H215.35l-21.768-27.991h-.121v27.991H181.577Z" fill="#fff"/>
      <path id="Path_39" data-name="Path 39" d="M248.839,122.2l-3.152,7.937H233.075l17.584-45.683h12.976l17.219,45.683H268.182l-2.971-7.937Zm8.308-23.629h-.122l-4.911,14.543H262Z" fill="#fff"/>
    </g>
    <g id="Group_10" data-name="Group 10">
      <path id="Path_40" data-name="Path 40" d="M66.024,175.643c4.678-1.58,5.035-7.435.423-7.435a4.77,4.77,0,0,0-3.831,2.715L56.378,181.7a8.956,8.956,0,0,1-.891,1.312,4.936,4.936,0,0,1,1.114-6.944l-.936-1.181c-4.856,3.094-3.431,12.02,4.679,12.02C67.272,186.907,70.48,178.6,66.024,175.643ZM60.3,185.126a6.676,6.676,0,0,1-3.342-.8,12.094,12.094,0,0,0,1.158-1.647l3.9-6.746.624.066C68.074,177.135,65.913,185.126,60.3,185.126Zm2.495-10.551,1.871-3.206c1.693-2.915,3.854-1.2,2.7.98C66.471,174.018,65.156,174.53,62.794,174.574Z" fill="#fff"/>
      <path id="Path_41" data-name="Path 41" d="M85.621,183.128a1.827,1.827,0,0,0,1.922,2.488A5.664,5.664,0,0,0,90.75,184.1a1.8,1.8,0,0,0,2.006,1.513,6.469,6.469,0,0,0,3.905-2.049c-.257,1.25.33,2.049,1.472,2.049,1.271,0,2.7-1.157,3.809-2.226a1.805,1.805,0,0,0,1.983,2.226c1.916,0,4.122-2.047,6.037-4.274a.933.933,0,0,0-.062-.092c1.281-1.489,2.411-3.069,3.219-4.137-.914,2.4-.423,6.723-2.63,6.723a1.294,1.294,0,0,1-1.092-.847l-1.448.758a2.525,2.525,0,0,0,2.539,1.869c.223,0,.423-.023.646-.044.023,0,.045-.021.067-.021a9.52,9.52,0,0,0,4.852-2.58c.035,1.523,1.218,2.645,3.143,2.645,2.629,0,5.235-2.047,7.152-4.274a2,2,0,0,0-.869-.8l-.156.179c-1.671,1.936-3.809,3.471-5.435,3.471-1.426,0-2.273-.891-1.2-2.76l.223-.4c1.492.623,4.3.334,6.037-2.672l.334-.578c1.247-2.138.045-3.74-1.849-3.74a4.9,4.9,0,0,0-4.344,2.671l-2.25,3.857c-.021-.007-.043-.023-.064-.028l-.156.178a14.5,14.5,0,0,1-2.785,2.516c.735-2.2.579-5.587,2-8.548l-1.737-.935c-.958,1.312-3.052,4.34-5.147,6.789.02.028.045.055.068.084l-.083.095c-1.671,1.936-3.3,3.471-4.322,3.471-.512,0-.8-.355-.268-1.268l4.946-8.66h-2.317l-4.122,7.19c-1.76,1.6-3.118,2.493-3.564,2.293-.578-.245,0-1.113.29-1.6l4.522-7.881h-2.317L98.1,180.638a1.3,1.3,0,0,0-.176-.1l-.156.178c-1.671,1.936-3.3,3.471-4.322,3.471-.512,0-.8-.355-.268-1.268l3.743-6.546H95.607a2.407,2.407,0,0,0-2.428-2.338,5.144,5.144,0,0,0-3.965,2.672l-2.349,4.051a1.741,1.741,0,0,0-.352-.222l-.156.178c-1.671,1.936-3.809,3.471-5.435,3.471-1.426,0-2.273-.891-1.2-2.759l2.384-4.14c1.337-2.293,3.7-1.914,2.316.489l-.334.579h1.894l.334-.579c1.247-2.136.045-3.74-1.849-3.74a4.9,4.9,0,0,0-4.344,2.672l-2.3,3.948a1.476,1.476,0,0,0-.213-.118l-.156.178c-1.671,1.936-3.809,3.471-5.435,3.471-1.426,0-2.273-.891-1.2-2.759l.223-.4c1.492.624,4.3.334,6.037-2.671l.334-.579c1.247-2.136.045-3.74-1.849-3.74a4.9,4.9,0,0,0-4.343,2.672l-2.429,4.162c-1.448,2.471-.2,4.741,2.539,4.741,2.041,0,4.067-1.234,5.768-2.829-.06,1.616,1.139,2.829,3.141,2.829A8.567,8.567,0,0,0,85.621,183.128Zm35.449-5.837c1.337-2.292,3.7-1.914,2.316.49l-.334.579c-1.113,1.892-2.607,1.848-3.475,1.536Zm-33.1,5.632,3.23-5.632c1.247-2.16,3.72-1.6,2.583.49l-1.8,3.162c-1.4,2.2-2.786,3.249-3.743,3.249C87.722,184.191,87.431,183.835,87.966,182.923ZM73.192,177.29c1.337-2.292,3.7-1.914,2.316.49l-.334.579c-1.113,1.892-2.607,1.848-3.475,1.536Z" fill="#fff"/>
      <path id="Path_42" data-name="Path 42" d="M151.741,185.616c2.629,0,5.237-2.047,7.152-4.274a1.992,1.992,0,0,0-.868-.8l-.155.179c-1.672,1.936-3.81,3.471-5.437,3.471-1.426,0-2.272-.891-1.2-2.76l.223-.4c1.493.623,4.3.334,6.037-2.672l.334-.578c1.247-2.138.045-3.74-1.849-3.74a4.9,4.9,0,0,0-4.343,2.671l-2.257,3.868c-.023-.011-.046-.029-.068-.038l-.156.179c-1.67,1.936-3.3,3.471-4.321,3.471-.513,0-.8-.356-.268-1.269l3.342-5.855c1-1.759.045-3.028-1.248-3.028a4.686,4.686,0,0,0-3.23,1.759l3.7-6.434h-2.317l-6.535,11.33a1.441,1.441,0,0,0-.265-.154l-.156.178c-1.671,1.936-3.3,3.472-4.322,3.472-.512,0-.8-.356-.268-1.269l4.968-8.66h1.894l.669-1.113h-1.916l2.183-3.784h-2.317l-2.183,3.784h-2.094l-.668,1.113h2.115l-4.656,8.06c-.98,1.714-.29,3.294,1.582,3.294a6.094,6.094,0,0,0,3.642-1.816l-.919,1.593h2.34l3.52-6.122c3.564-4.475,5.147-3.9,4.144-2.182l-3.007,5.233c-.98,1.713-.29,3.293,1.582,3.293,1.408,0,2.971-1.105,4.462-2.577C148.667,184.529,149.846,185.616,151.741,185.616Zm1.872-8.326c1.337-2.292,3.7-1.914,2.317.49l-.334.579c-1.114,1.892-2.608,1.848-3.476,1.536Z" fill="#fff"/>
      <path id="Path_43" data-name="Path 43" d="M222,180.542l-.156.178c-1.668,1.936-3.3,3.472-4.321,3.472-.512,0-.8-.356-.268-1.269l7.842-13.557h-2.317l-3.408,5.877a2.512,2.512,0,0,0-2.117-1.2,5.143,5.143,0,0,0-3.965,2.671l-2.268,3.91a1.519,1.519,0,0,0-.144-.081l-.156.179c-1.67,1.936-3.3,3.471-4.321,3.471-.513,0-.8-.356-.268-1.269l3.342-5.855c1-1.759.045-3.028-1.247-3.028a4.606,4.606,0,0,0-3.208,1.737l.869-1.513h-2.317l-3.7,6.4a1.578,1.578,0,0,0-.221-.124l-.157.179c-1.67,1.936-3.3,3.471-4.321,3.471-.512,0-.8-.356-.268-1.269l3.743-6.545h-1.315a2.407,2.407,0,0,0-2.428-2.338,5.145,5.145,0,0,0-3.966,2.671l-2.239,3.864-.126.143c-1.67,1.936-3.3,3.471-4.321,3.471-.513,0-.8-.355-.268-1.268l2.317-4.051a2.366,2.366,0,0,0-.334-3.139l-1.292-1.559a.9.9,0,0,1,.134-1.336l-1.2-1.313c-1.315,1.181-1.426,2.493-.6,3.562l.2.267c-1.025,1.447-2.406,3.406-3.922,5.187a2.134,2.134,0,0,0,.158.2,15.386,15.386,0,0,1-5.353,4.389l2.94-5.031h-2.317l-.244.4c-1.225,2.16-2.63,3.7-4.434,3.7-1.582,0-1.871-1.58-.491-3.94l.647-1.135a8.347,8.347,0,0,0,1.313.111c8.243,0,12.231-11.018,4.97-11.018a4.77,4.77,0,0,0-3.833,2.715l-3.608,6.211a3.728,3.728,0,0,1-2.071-3.294,3.68,3.68,0,0,1,1.491-2.915l-.756-1.359a5.1,5.1,0,0,0,.535,8.927l-.691,1.2c-1.626,2.805-1.337,5.921,1.939,5.921a4.651,4.651,0,0,0,2.517-.735l-.6,1.047c-3.14.956-5.078,2.226-5.078,3.962,0,2.226,3.409,2.694,5.078-.156l1.783-3.05c2.407-.756,4.769-2.4,7.309-5.342a1.365,1.365,0,0,0-.144-.217c1.029-1.208,1.9-2.374,3.648-4.747l.311.379a1.136,1.136,0,0,1,.134,1.314l-2.451,4.251c-.98,1.713-.29,3.293,1.582,3.293a6.154,6.154,0,0,0,3.685-1.853,1.792,1.792,0,0,0,2.023,1.853,5.662,5.662,0,0,0,3.207-1.513,1.8,1.8,0,0,0,2.006,1.513,5.909,5.909,0,0,0,3.508-1.7l-.854,1.478h2.338l3.542-6.168c3.542-4.429,5.125-3.851,4.121-2.136l-3.007,5.232c-.979,1.714-.29,3.294,1.581,3.294a6.454,6.454,0,0,0,3.9-2.042,1.8,1.8,0,0,0,2.013,2.042,5.668,5.668,0,0,0,3.208-1.513,1.8,1.8,0,0,0,2,1.513c1.916,0,4.121-2.047,6.037-4.274A2.011,2.011,0,0,0,222,180.542ZM174.378,171.9c.691-1.179,1.448-1.691,2.1-1.691,3.676,0,1.092,7.48-4.968,7.48h-.468Zm-4.923,17.453c-.489.868-1.269.735-1.269.112,0-.6.535-1.291,2.317-1.981Zm24.248-8.414c-1.4,2.2-2.786,3.249-3.743,3.249-.513,0-.8-.356-.268-1.269l3.23-5.633c1.248-2.159,3.72-1.6,2.584.49Zm22.42-.134c-1.4,2.293-2.83,3.384-3.809,3.384-.512,0-.8-.356-.268-1.269l3.23-5.633c1.248-2.159,3.72-1.6,2.584.49h.021Z" fill="#fff"/>
      <path id="Path_44" data-name="Path 44" d="M144.6,202.516l-.156.179c-1.67,1.936-3.3,3.472-4.321,3.472-.513,0-.8-.356-.268-1.269l3.342-5.855c1-1.759.043-3.028-1.248-3.028a4.606,4.606,0,0,0-3.208,1.737l.869-1.513H137.3l-3.733,6.455a1.625,1.625,0,0,0-.3-.178l-.156.179a5,5,0,0,1-3.5,1.714l2.183-3.762c1.4-2.427.112-4.719-2.072-4.719-1.783,0-3.163.712-4.5,3.028l-1.136,1.981-.993,1.7a1.471,1.471,0,0,0-.21-.117l-.156.179a15.469,15.469,0,0,1-5.369,4.408l6.35-10.864h-2.317l-4.1,7.124c-1.783,1.647-3.164,2.559-3.609,2.359-.579-.244,0-1.113.29-1.6l4.522-7.881h-2.317l-3.7,6.391a1.509,1.509,0,0,0-.2-.114l-.156.179c-1.671,1.936-3.3,3.472-4.322,3.472-.512,0-.8-.356-.268-1.269l3.342-5.855c1-1.759.045-3.028-1.247-3.028a4.606,4.606,0,0,0-3.208,1.737l.869-1.513h-2.318l-3.7,6.4a1.542,1.542,0,0,0-.22-.124l-.156.179c-1.67,1.936-3.3,3.472-4.322,3.472-.512,0-.8-.356-.268-1.269l3.743-6.544H98.735a2.408,2.408,0,0,0-2.429-2.338,5.142,5.142,0,0,0-3.965,2.672l-2.393,4.128a1.314,1.314,0,0,0-.508-.3l-.156.179c-1.671,1.936-3.72,3.472-6.016,3.472-1.581,0-2.539-1.58-1.158-3.94l.646-1.135a8.366,8.366,0,0,0,1.314.112,8.212,8.212,0,0,0,7.107-4.453,6.413,6.413,0,0,0,.935-3.116,3.156,3.156,0,0,0-3.074-3.45,4.769,4.769,0,0,0-3.831,2.716L81.6,199.114a3.73,3.73,0,0,1-2.073-3.294,3.678,3.678,0,0,1,1.492-2.915l-.757-1.359a5.1,5.1,0,0,0,.535,8.927l-.69,1.2c-1.626,2.8-.668,5.92,2.607,5.92a8.572,8.572,0,0,0,6.09-2.669A1.851,1.851,0,0,0,90.67,207.6a5.666,5.666,0,0,0,3.208-1.513,1.8,1.8,0,0,0,2,1.513,5.91,5.91,0,0,0,3.508-1.7l-.854,1.477h2.339l3.542-6.167c3.542-4.43,5.125-3.852,4.122-2.138l-3.007,5.229c-.98,1.715-.29,3.294,1.582,3.294,1.247,0,2.616-.87,3.949-2.089-.278,1.273.31,2.089,1.464,2.089,1.114,0,2.383-.935,3.431-1.87l-1.27,2.182c-3.141.934-5.1,2.226-5.1,3.962,0,2.226,3.409,2.694,5.078-.156l1.782-3.05a14.615,14.615,0,0,0,5.841-3.782c-.319,3.233,3.991,3.971,6.59.687h.512a6.774,6.774,0,0,0,3.026-.888l-1.558,2.692h2.34l3.542-6.167c3.542-4.43,5.125-3.852,4.122-2.138l-3.007,5.232c-.98,1.715-.29,3.294,1.582,3.294,1.917,0,4.121-2.047,6.037-4.274A2,2,0,0,0,144.6,202.516Zm-57.659-8.637c.69-1.18,1.448-1.691,2.094-1.691.869,0,1.27.578,1.27,1.425,0,2.16-2.629,6.055-6.238,6.055H83.6Zm8.158,9.038c-1.4,2.2-2.785,3.249-3.743,3.249-.512,0-.8-.356-.268-1.269l3.23-5.633c1.247-2.158,3.72-1.6,2.583.491Zm17.624,8.413c-.491.869-1.27.735-1.27.113,0-.6.557-1.291,2.339-1.981Zm15.595-8.659h-.112a1.369,1.369,0,0,0-1.359,1.381,1.51,1.51,0,0,0,.223.778l-.023.045c-1.091,1.869-3.743,1.513-2.361-.891l1.76-3.05,1.114-1.893c1.627-2.76,3.854-1.669,2.451.735Z" fill="#fff"/>
      <path id="Path_45" data-name="Path 45" d="M198.3,203.317a1.462,1.462,0,0,0-.869-.8l-.156.179a14.437,14.437,0,0,1-2.785,2.515c.735-2.2.578-5.587,2-8.548l-1.739-.935c-.956,1.313-3.051,4.341-5.145,6.79a.114.114,0,0,0,.013.015.216.216,0,0,0-.029-.015l-.155.179c-1.671,1.936-3.3,3.472-4.323,3.472-.512,0-1-.512-1-1.558v-.957c1.627.2,3.342-.869,4.434-2.76l.624-1.068c2.159-3.695-1.36-4.92-3.721-2.759l3.3-5.721h-2.317L179.826,202.8a1.847,1.847,0,0,0-.423-.28l-.157.178c-1.67,1.937-3.809,3.473-5.436,3.473-1.426,0-2.271-.891-1.2-2.76l2.382-4.14c1.337-2.293,3.7-1.914,2.317.49l-.334.579h1.895l.335-.579c1.247-2.137.043-3.74-1.85-3.74a4.9,4.9,0,0,0-4.344,2.672l-2.28,3.909a1.4,1.4,0,0,0-.142-.082l-.157.179c-1.67,1.937-3.3,3.473-4.321,3.473-.513,0-.8-.356-.268-1.269l4.946-8.659h-2.318l-4.12,7.19c-1.762,1.6-3.118,2.493-3.565,2.292-.579-.244,0-1.112.29-1.6l4.522-7.88h-2.317l-4.5,7.779a13.764,13.764,0,0,1-1.5,1.192c.735-2.2.578-5.587,2-8.548l-1.737-.936c-.958,1.314-6.3,8.393-8.4,10.842a3.361,3.361,0,0,0,.869.8c1.313-1.514,5.725-7.191,6.55-8.281-.914,2.4-.424,6.723-2.63,6.723a1.294,1.294,0,0,1-1.092-.847l-1.448.756a2.525,2.525,0,0,0,2.539,1.87,6.414,6.414,0,0,0,.647-.044c.021,0,.044-.022.065-.022a8.05,8.05,0,0,0,3.44-1.452,1.4,1.4,0,0,0,1.533,1.518c1.268,0,2.7-1.158,3.808-2.226a1.806,1.806,0,0,0,1.983,2.226c1.439,0,3.042-1.156,4.561-2.674.02,1.538,1.206,2.674,3.142,2.674a8.564,8.564,0,0,0,5.361-2.461l-1.291,2.239h2.34l2.651-4.609v1.847c0,1.98.378,2.983,2.249,2.983,1.916,0,4.122-2.048,6.039-4.274,0-.007-.012-.013-.013-.021l.029.021c1.315-1.513,2.473-3.139,3.3-4.23-.912,2.4-.422,6.724-2.629,6.724a1.3,1.3,0,0,1-1.092-.847l-1.448.757a2.526,2.526,0,0,0,2.54,1.869c.221,0,.422-.022.648-.044.021,0,.042-.022.065-.022C194.227,207.212,196.567,205.343,198.3,203.317Zm-15.386-1.826.668-1.157c2.674-3.718,4.5-2.694,3.676-1.291l-1.113,1.914C185.456,202.16,183.429,203.005,182.918,201.492Z" fill="#fff"/>
      <path id="Path_46" data-name="Path 46" d="M198.215,204.9a1.332,1.332,0,0,0-1.338,1.359,1.312,1.312,0,0,0,1.338,1.336,1.331,1.331,0,0,0,1.359-1.336A1.351,1.351,0,0,0,198.215,204.9Z" fill="#fff"/>
      <path id="Path_47" data-name="Path 47" d="M198.326,203.985h2.34l7.261-12.645h-2.316Z" fill="#fff"/>
    </g>
    <g id="Group_11" data-name="Group 11">
      <path id="Path_48" data-name="Path 48" d="M49.122,169.441a1.5,1.5,0,0,1-.1.537,1.459,1.459,0,0,1-.31.487,1.585,1.585,0,0,1-.506.35,1.613,1.613,0,0,1-.672.135,2.1,2.1,0,0,1-.8-.154,1.8,1.8,0,0,1-.65-.445,1.893,1.893,0,0,1-.351-.64,2.45,2.45,0,0,1-.124-.784,3.611,3.611,0,0,1,1.075-2.623,3.522,3.522,0,0,1,.517-.423,5.651,5.651,0,0,1,.547-.33q.257-.134.444-.215c.124-.056.2-.09.228-.1l.827,1.218c-.152.055-.32.128-.506.216a2.844,2.844,0,0,0-.526.33,1.8,1.8,0,0,0-.414.465,1.317,1.317,0,0,0-.186.62,1.674,1.674,0,0,1,1.054.351A1.2,1.2,0,0,1,49.122,169.441Zm4.805,0a1.479,1.479,0,0,1-.1.537,1.451,1.451,0,0,1-.309.486,1.572,1.572,0,0,1-.507.35,1.621,1.621,0,0,1-.672.135,2.1,2.1,0,0,1-.8-.154,1.793,1.793,0,0,1-.651-.444,1.913,1.913,0,0,1-.351-.64,2.467,2.467,0,0,1-.124-.784,3.611,3.611,0,0,1,1.075-2.623,3.425,3.425,0,0,1,.517-.422,5.508,5.508,0,0,1,.547-.33c.172-.089.32-.162.445-.216s.2-.089.227-.1l.827,1.218c-.152.055-.319.128-.506.215a2.8,2.8,0,0,0-.527.33,1.763,1.763,0,0,0-.413.465,1.3,1.3,0,0,0-.186.621,1.674,1.674,0,0,1,1.054.35A1.2,1.2,0,0,1,53.927,169.441Z" fill="#fff"/>
    </g>
    <g id="Group_12" data-name="Group 12">
      <path id="Path_49" data-name="Path 49" d="M215.908,205.421a1.5,1.5,0,0,1,.1-.537,1.476,1.476,0,0,1,.31-.485,1.582,1.582,0,0,1,.506-.351,1.633,1.633,0,0,1,.672-.134,2.112,2.112,0,0,1,.8.154,1.787,1.787,0,0,1,.65.445,1.892,1.892,0,0,1,.352.64,2.468,2.468,0,0,1,.124.785,3.609,3.609,0,0,1-1.075,2.622,3.44,3.44,0,0,1-.519.423,4.882,4.882,0,0,1-.547.33c-.172.089-.319.162-.445.217s-.2.089-.227.1l-.827-1.218c.152-.055.32-.128.506-.217a2.817,2.817,0,0,0,.527-.33,1.793,1.793,0,0,0,.414-.466,1.294,1.294,0,0,0,.186-.618,1.671,1.671,0,0,1-1.053-.352A1.2,1.2,0,0,1,215.908,205.421Zm-4.806,0a1.477,1.477,0,0,1,.1-.537,1.453,1.453,0,0,1,.309-.485,1.587,1.587,0,0,1,.507-.351,1.629,1.629,0,0,1,.672-.134,2.113,2.113,0,0,1,.8.154,1.8,1.8,0,0,1,.651.445,1.921,1.921,0,0,1,.351.64,2.434,2.434,0,0,1,.124.785,3.611,3.611,0,0,1-1.074,2.622,3.483,3.483,0,0,1-.517.423,5.623,5.623,0,0,1-.547.33c-.172.089-.319.162-.445.217s-.2.089-.226.1l-.828-1.218a5.471,5.471,0,0,0,.507-.217,2.777,2.777,0,0,0,.527-.33,1.793,1.793,0,0,0,.414-.466,1.308,1.308,0,0,0,.186-.618,1.682,1.682,0,0,1-1.055-.352A1.2,1.2,0,0,1,211.1,205.421Z" fill="#fff"/>
    </g>
  </g>
</svg>
