<svg width="9" height="7" viewBox="0 0 9 7" fill="black" xmlns="http://www.w3.org/2000/svg">
<path fill-rule="evenodd" clip-rule="evenodd" d="M6.88471 0.21735C7.02466 0.0786222 7.21358 0.000546537 7.41064 2.85844e-06C7.6077 -0.00054082 7.79705 0.0764912 7.93776 0.214445C8.07848 0.352399 8.15924 0.540191 8.1626 0.737219C8.16596 0.934247 8.09164 1.12468 7.95571 1.26735L3.96371 6.25735C3.8951 6.33125 3.81229 6.39055 3.72024 6.43172C3.62819 6.47288 3.52878 6.49506 3.42796 6.49693C3.32714 6.49879 3.22698 6.48031 3.13347 6.44258C3.03995 6.40486 2.95501 6.34866 2.88371 6.27735L0.238708 3.63135C0.165022 3.56269 0.105919 3.47989 0.0649275 3.38789C0.0239355 3.29589 0.0018935 3.19658 0.00011672 3.09587C-0.00166006 2.99517 0.0168648 2.89514 0.0545858 2.80175C0.0923068 2.70836 0.148451 2.62353 0.21967 2.55231C0.290889 2.48109 0.375723 2.42495 0.469111 2.38723C0.562499 2.34951 0.662528 2.33098 0.763231 2.33276C0.863934 2.33454 0.963247 2.35658 1.05525 2.39757C1.14725 2.43856 1.23005 2.49766 1.29871 2.57135L3.39271 4.66435L6.86571 0.239351C6.87191 0.231604 6.87859 0.224256 6.88571 0.21735H6.88471Z" fill="black"/>
</svg>
